# 3ds Max Wavefront OBJ Exporter v0.97b - (c)2007 guruware
# File Created: 03.12.2017 12:14:16

#
# object Cliff_1
#

v  -398.3246 0.0000 31.2784
v  -318.3246 0.0000 19.3133
v  -318.3246 79.6733 -23.6626
v  -398.3246 79.6733 -36.4729
v  -238.3246 0.0000 31.1534
v  -238.3246 79.6733 -65.4739
v  -158.3246 0.0000 7.1619
v  -158.3246 79.6733 -44.5812
v  -78.3246 0.0000 33.0697
v  -78.3246 79.6733 0.2260
v  1.6754 0.0000 47.8874
v  1.6754 79.6733 -86.6413
v  81.6754 0.0000 -6.5361
v  81.6754 79.6733 -67.9165
v  161.6754 0.0000 22.7451
v  161.6754 79.6733 -69.3311
v  241.6754 0.0000 11.2639
v  241.6754 79.6733 -32.7160
v  321.6754 0.0000 26.4475
v  321.6754 79.6733 -44.5812
v  401.6754 0.0000 19.4074
v  401.6754 79.6733 -57.7929
v  -318.3246 155.5133 -80.9601
v  -398.3246 155.5133 -80.9601
v  -238.3246 155.5133 -80.9601
v  -158.3246 155.5133 -80.9601
v  -78.3246 155.5133 -90.2173
v  1.6754 155.5133 -80.9601
v  81.6754 155.5133 -67.1122
v  161.6754 155.5133 -43.4708
v  241.6754 155.5133 -64.6772
v  321.6754 155.5133 -80.9601
v  401.6754 155.5133 -80.9601
v  -318.3246 218.0877 -78.6568
v  -398.3246 218.0877 -78.6568
v  -238.3246 218.0877 -107.9166
v  -158.3246 218.0877 -78.6568
v  -78.3246 218.0877 -63.4819
v  1.6754 218.0877 -78.6568
v  81.6754 218.0877 -70.5931
v  161.6754 218.0877 -63.1270
v  241.6754 218.0877 -78.6568
v  321.6754 218.0877 -78.6568
v  401.6754 218.0877 -78.6568
v  -318.3246 267.1509 -22.0043
v  -398.3246 267.1509 -26.5974
v  -238.3246 267.1509 -45.4236
v  -158.3246 267.1509 -30.8803
v  -78.3246 267.1509 -45.4236
v  1.6754 267.1509 -45.4236
v  81.6754 267.1509 -59.4968
v  161.6754 267.1509 -51.5644
v  241.6754 267.1509 -45.4236
v  321.6754 267.1509 -63.1947
v  401.6754 267.1509 -33.6829
v  -318.3246 326.8256 -32.9277
v  -398.3246 326.8256 -14.9108
v  -238.3246 326.8256 0.1089
v  -158.3246 326.8256 -22.5274
v  -78.3246 326.8256 -48.6550
v  1.6754 326.8256 -38.1463
v  81.6754 326.8256 -40.6971
v  161.6754 326.8256 -32.9277
v  241.6754 326.8256 -50.8027
v  321.6754 326.8256 -32.9277
v  401.6754 326.8256 -17.7740
v  -318.3246 404.3890 7.0784
v  -398.3246 404.4742 0.3808
v  -238.3246 404.3752 30.4369
v  -158.3246 404.4091 0.0213
v  -78.3246 404.4100 -5.0303
v  1.6754 404.4961 -24.7604
v  81.6754 404.3882 -0.8736
v  161.6754 404.4827 -18.3934
v  241.6754 404.3855 -23.9608
v  321.6754 404.3728 -0.4896
v  401.6754 404.3749 17.8093
v  -398.3246 408.4194 -4.5667
v  -318.3246 408.4194 3.3947
v  -318.3246 408.4194 -629.3282
v  -398.3246 408.4194 -629.3282
v  -238.3246 408.4194 26.2499
v  -238.3246 408.4194 -629.3282
v  -158.3246 408.4194 -4.5667
v  -158.3246 408.4194 -629.3282
v  -78.3246 408.4194 -8.5289
v  -78.3246 408.4194 -629.3282
v  1.6754 408.4194 -29.7988
v  1.6754 408.4194 -629.3282
v  81.6754 408.4194 -4.5667
v  81.6754 408.4194 -629.3282
v  161.6754 408.4194 -23.3772
v  161.6754 408.4194 -629.3282
v  241.6754 408.4194 -28.3288
v  241.6754 408.4194 -629.3282
v  321.6754 408.4194 -4.5667
v  321.6754 408.4194 -629.3282
v  401.6754 408.4194 13.8963
v  401.6754 408.4194 -629.3282
v  -398.3246 -60.9743 81.9751
v  -318.3246 -60.9743 81.9751
v  -238.3246 -60.9743 81.9751
v  -158.3246 -60.9743 81.9751
v  -78.3246 -60.9743 81.9751
v  1.6754 -60.9743 81.9751
v  81.6754 -60.9743 81.9751
v  161.6754 -60.9743 81.9751
v  241.6754 -60.9743 81.9751
v  321.6754 -60.9743 81.9751
v  401.6754 -60.9743 81.9751
v  -478.0282 79.6733 -58.1721
v  -478.0282 0.0000 11.2639
v  -478.0282 155.5133 -80.9601
v  -478.0282 218.0877 -78.6568
v  -478.0282 267.1509 -68.9749
v  -478.0282 326.8256 -32.9277
v  -478.0282 404.3728 -0.4896
v  -478.0282 408.4194 -629.3282
v  -478.0282 408.4194 -4.5667
v  -478.0282 -60.9743 81.9751
v  479.0013 0.0000 2.1386
v  479.0013 79.6733 -44.5812
v  479.0013 155.5133 -80.9601
v  479.0013 218.0877 -78.6568
v  479.0013 267.1509 -45.4236
v  479.0013 326.8256 -32.9277
v  479.0013 404.3728 -0.4896
v  479.0013 408.4194 -4.5667
v  479.0013 408.4194 -629.3282
v  479.0013 -60.9743 81.9751
v  547.7189 0.0000 11.2639
v  547.7189 79.6733 -59.7365
v  547.7189 155.5133 -74.7660
v  547.7189 243.7701 -73.5061
v  547.7189 267.1509 -48.9311
v  547.7189 326.8256 -32.9277
v  547.7189 404.3728 -0.4896
v  547.7189 -60.9743 81.9751
v  547.7189 408.4194 -4.5667
v  547.7189 408.4194 -629.3282
v  -560.6613 79.6733 -44.5812
v  -560.6613 0.0000 1.4164
v  -560.6613 155.5133 -59.5572
v  -560.6613 218.0877 -64.9878
v  -560.6613 267.1509 -45.4236
v  -560.6613 326.8256 -32.9277
v  -560.6613 404.6923 -32.8364
v  -560.6613 408.4194 -629.3282
v  -560.6613 408.4194 -38.4593
v  -560.6613 -60.9743 81.9751
# 150 vertices

vn -0.0627 0.6225 0.7801
vn 0.0531 0.6371 0.7690
vn 0.1389 0.5214 0.8419
vn -0.1330 0.5672 0.8128
vn 0.0402 0.6870 0.7256
vn 0.1031 0.4786 0.8720
vn -0.0547 0.6182 0.7841
vn -0.1987 0.5838 0.7872
vn -0.0647 0.6355 0.7694
vn 0.1330 0.5195 0.8441
vn 0.1641 0.6528 0.7395
vn 0.2264 0.3758 0.8986
vn 0.1143 0.7022 0.7028
vn -0.0733 0.3586 0.9306
vn -0.0743 0.7138 0.6964
vn -0.1160 0.2886 0.9504
vn 0.0091 0.6402 0.7681
vn -0.0559 0.5007 0.8638
vn -0.0129 0.6871 0.7265
vn 0.0876 0.5139 0.8533
vn 0.0818 0.7124 0.6970
vn 0.0202 0.4656 0.8848
vn 0.0382 0.3330 0.9422
vn 0.0000 0.2444 0.9697
vn 0.0091 0.3136 0.9495
vn -0.0189 0.1355 0.9906
vn -0.0105 0.2079 0.9781
vn 0.0053 0.0933 0.9956
vn -0.2074 0.0411 0.9774
vn 0.0142 0.0159 0.9998
vn 0.1105 0.1954 0.9745
vn 0.0913 0.1947 0.9766
vn -0.0002 0.1681 0.9858
vn 0.1533 -0.4528 0.8784
vn -0.0708 -0.3660 0.9279
vn -0.0407 -0.2481 0.9679
vn -0.1622 -0.3182 0.9340
vn 0.0076 -0.3574 0.9339
vn 0.0302 -0.3114 0.9498
vn -0.1075 -0.0934 0.9898
vn -0.0225 -0.0273 0.9994
vn 0.1336 -0.1461 0.9802
vn -0.0217 -0.1890 0.9817
vn 0.0000 -0.3796 0.9252
vn -0.0103 -0.4004 0.9163
vn -0.1464 -0.4601 0.8757
vn 0.0945 -0.6689 0.7373
vn 0.0088 -0.4231 0.9060
vn 0.0146 -0.2161 0.9763
vn 0.0839 -0.3420 0.9359
vn -0.0076 -0.2964 0.9550
vn -0.0417 -0.2249 0.9735
vn 0.0333 -0.2695 0.9624
vn -0.0807 -0.3824 0.9205
vn -0.0712 -0.4222 0.9037
vn -0.1117 -0.1659 0.9798
vn -0.0121 -0.2560 0.9666
vn 0.0286 -0.4031 0.9147
vn 0.1872 -0.2960 0.9367
vn 0.1060 -0.1942 0.9752
vn -0.0699 -0.1672 0.9834
vn 0.0247 -0.3285 0.9442
vn 0.0393 -0.2585 0.9652
vn -0.0524 -0.1656 0.9848
vn -0.1353 -0.3708 0.9188
vn -0.0238 -0.3571 0.9338
vn -0.1497 0.1705 0.9739
vn -0.0426 0.3474 0.9368
vn 0.0225 0.1810 0.9832
vn 0.2011 0.2797 0.9388
vn 0.1771 0.1319 0.9753
vn -0.0732 0.3475 0.9348
vn 0.0030 0.1571 0.9876
vn 0.0961 0.3191 0.9428
vn -0.0900 0.2778 0.9564
vn -0.2374 0.1976 0.9511
vn 0.0031 0.1644 0.9864
vn 0.0000 1.0000 -0.0000
vn -0.0164 0.6938 0.7200
vn -0.0260 0.6982 0.7155
vn 0.0511 0.6796 0.7318
vn -0.0523 0.7404 0.6701
vn -0.0394 0.5952 0.8026
vn 0.1257 0.5950 0.7939
vn -0.0502 0.7926 0.6077
vn 0.0232 0.7138 0.7000
vn -0.0305 0.7366 0.6756
vn 0.0154 0.6848 0.7286
vn -0.0000 0.7162 0.6979
vn -0.0308 0.4597 0.8875
vn -0.0925 0.6740 0.7329
vn 0.0794 0.1686 0.9825
vn 0.0985 -0.1300 0.9866
vn -0.0384 -0.3833 0.9228
vn -0.1907 -0.3720 0.9084
vn -0.2087 0.2104 0.9551
vn -0.0170 0.7688 0.6393
vn -0.0007 0.6755 0.7374
vn 0.0048 0.4855 0.8742
vn -0.0116 0.1700 0.9854
vn 0.0229 -0.2919 0.9562
vn 0.1171 -0.4088 0.9051
vn 0.1025 -0.3038 0.9472
vn 0.1187 0.2027 0.9720
vn 0.0313 0.7743 0.6320
vn -0.0458 0.6754 0.7361
vn 0.1170 0.4922 0.8626
vn -0.0841 0.0855 0.9928
vn 0.0245 -0.4305 0.9023
vn 0.0305 -0.5035 0.8635
vn 0.0000 -0.3232 0.9463
vn 0.0000 0.1952 0.9808
vn -0.0331 0.7803 0.6245
vn 0.0936 0.4102 0.9072
vn -0.0749 0.6405 0.7643
vn 0.2245 0.1611 0.9611
vn 0.1872 -0.1718 0.9672
vn 0.2336 -0.2492 0.9399
vn 0.0796 -0.1762 0.9811
vn -0.2313 0.4244 0.8754
vn 0.0000 0.7974 0.6035
vn -0.1361 0.6694 0.7304
vn -0.0255 0.7795 0.6259
vn 0.0348 0.7195 0.6936
vn 0.1333 0.7442 0.6546
vn 0.1140 0.6565 0.7457
vn -0.0081 0.7866 0.6174
vn -0.0376 0.6776 0.7344
vn 0.0904 0.7803 0.6188
vn -0.0705 0.7323 0.6774
vn -0.1847 0.6972 0.6926
vn 0.0023 0.6956 0.7184
vn -0.1551 0.7029 0.6941
vn 0.0786 0.7076 0.7023
vn 0.0000 0.7098 0.7045
vn -0.2119 0.8095 0.5475
# 136 vertex normals

vt 0.1443 0.6185 0.0000
vt 0.2107 0.6241 0.0000
vt 0.2096 0.6956 0.0000
vt 0.1439 0.7017 0.0000
vt 0.2775 0.6162 0.0000
vt 0.2795 0.7131 0.0000
vt 0.3451 0.6291 0.0000
vt 0.3447 0.7045 0.0000
vt 0.4135 0.6150 0.0000
vt 0.4130 0.6828 0.0000
vt 0.4816 0.6052 0.0000
vt 0.4934 0.7238 0.0000
vt 0.5544 0.6370 0.0000
vt 0.5551 0.7181 0.0000
vt 0.6219 0.6201 0.0000
vt 0.6183 0.7150 0.0000
vt 0.6889 0.6292 0.0000
vt 0.6892 0.7036 0.0000
vt 0.7559 0.6218 0.0000
vt 0.7569 0.7071 0.0000
vt 0.8226 0.6249 0.0000
vt 0.8236 0.7120 0.0000
vt 0.2110 0.7706 0.0000
vt 0.1450 0.7714 0.0000
vt 0.2789 0.7695 0.0000
vt 0.3474 0.7716 0.0000
vt 0.4158 0.7752 0.0000
vt 0.4855 0.7780 0.0000
vt 0.5549 0.7782 0.0000
vt 0.6234 0.7754 0.0000
vt 0.6910 0.7718 0.0000
vt 0.7581 0.7734 0.0000
vt 0.8238 0.7734 0.0000
vt 0.2116 0.8203 0.0000
vt 0.1453 0.8203 0.0000
vt 0.2793 0.8155 0.0000
vt 0.3470 0.8220 0.0000
vt 0.4159 0.8277 0.0000
vt 0.4851 0.8246 0.0000
vt 0.5540 0.8265 0.0000
vt 0.6230 0.8262 0.0000
vt 0.6914 0.8228 0.0000
vt 0.7575 0.8228 0.0000
vt 0.8238 0.8222 0.0000
vt 0.2104 0.8779 0.0000
vt 0.1472 0.8762 0.0000
vt 0.2796 0.8715 0.0000
vt 0.3486 0.8754 0.0000
vt 0.4167 0.8693 0.0000
vt 0.4848 0.8693 0.0000
vt 0.5538 0.8658 0.0000
vt 0.6218 0.8668 0.0000
vt 0.6889 0.8681 0.0000
vt 0.7564 0.8637 0.0000
vt 0.8246 0.8738 0.0000
vt 0.2102 0.9222 0.0000
vt 0.1440 0.9232 0.0000
vt 0.2804 0.9299 0.0000
vt 0.3494 0.9219 0.0000
vt 0.4187 0.9153 0.0000
vt 0.4860 0.9164 0.0000
vt 0.5536 0.9156 0.0000
vt 0.6211 0.9171 0.0000
vt 0.6890 0.9142 0.0000
vt 0.7569 0.9173 0.0000
vt 0.8240 0.9218 0.0000
vt 0.2108 0.9893 0.0000
vt 0.1431 0.9869 0.0000
vt 0.2798 0.9950 0.0000
vt 0.3498 0.9859 0.0000
vt 0.4165 0.9846 0.0000
vt 0.4846 0.9797 0.0000
vt 0.5534 0.9860 0.0000
vt 0.6217 0.9809 0.0000
vt 0.6887 0.9788 0.0000
vt 0.7570 0.9844 0.0000
vt 0.8240 0.9900 0.0000
vt 0.1639 0.0289 0.0000
vt 0.2308 0.0250 0.0000
vt 0.2119 0.5150 0.0000
vt 0.1452 0.5128 0.0000
vt 0.2982 0.0095 0.0000
vt 0.2786 0.5172 0.0000
vt 0.3639 0.0356 0.0000
vt 0.3452 0.5194 0.0000
vt 0.4305 0.0409 0.0000
vt 0.4119 0.5217 0.0000
vt 0.4966 0.0596 0.0000
vt 0.4786 0.5239 0.0000
vt 0.5640 0.0423 0.0000
vt 0.5453 0.5261 0.0000
vt 0.6302 0.0590 0.0000
vt 0.6120 0.5283 0.0000
vt 0.6967 0.0651 0.0000
vt 0.6787 0.5306 0.0000
vt 0.7641 0.0489 0.0000
vt 0.7454 0.5328 0.0000
vt 0.8313 0.0369 0.0000
vt 0.8121 0.5350 0.0000
vt 0.1446 0.5556 0.0000
vt 0.2109 0.5550 0.0000
vt 0.2776 0.5538 0.0000
vt 0.3453 0.5529 0.0000
vt 0.4139 0.5525 0.0000
vt 0.4825 0.5512 0.0000
vt 0.5524 0.5514 0.0000
vt 0.6217 0.5525 0.0000
vt 0.6896 0.5543 0.0000
vt 0.7562 0.5556 0.0000
vt 0.8220 0.5555 0.0000
vt 0.0782 0.7120 0.0000
vt 0.0776 0.6294 0.0000
vt 0.0803 0.7729 0.0000
vt 0.0800 0.8214 0.0000
vt 0.0781 0.8607 0.0000
vt 0.0778 0.9167 0.0000
vt 0.0769 0.9846 0.0000
vt 0.0787 0.5105 0.0000
vt 0.0974 0.0267 0.0000
vt 0.0790 0.5553 0.0000
vt 0.8869 0.6338 0.0000
vt 0.8878 0.7068 0.0000
vt 0.8870 0.7731 0.0000
vt 0.8872 0.8222 0.0000
vt 0.8873 0.8690 0.0000
vt 0.8882 0.9172 0.0000
vt 0.8884 0.9841 0.0000
vt 0.8953 0.0533 0.0000
vt 0.8766 0.5372 0.0000
vt 0.8851 0.5543 0.0000
vt 0.9424 0.6275 0.0000
vt 0.9454 0.7123 0.0000
vt 0.9429 0.7731 0.0000
vt 0.9430 0.8423 0.0000
vt 0.9426 0.8680 0.0000
vt 0.9433 0.9167 0.0000
vt 0.9439 0.9836 0.0000
vt 0.9405 0.5530 0.0000
vt 0.9525 0.0552 0.0000
vt 0.9338 0.5391 0.0000
vt 0.0111 0.7096 0.0000
vt 0.0098 0.6355 0.0000
vt 0.0118 0.7720 0.0000
vt 0.0127 0.8223 0.0000
vt 0.0109 0.8646 0.0000
vt 0.0108 0.9130 0.0000
vt 0.0050 0.9743 0.0000
vt 0.0098 0.5082 0.0000
vt 0.0275 0.0506 0.0000
vt 0.0122 0.5543 0.0000
vt 0.2309 0.0209 0.0000
vt 0.1640 0.0239 0.0000
vt 0.2983 0.0050 0.0000
vt 0.3641 0.0308 0.0000
vt 0.4306 0.0369 0.0000
vt 0.4967 0.0545 0.0000
vt 0.5641 0.0382 0.0000
vt 0.6303 0.0540 0.0000
vt 0.6968 0.0605 0.0000
vt 0.7642 0.0445 0.0000
vt 0.8315 0.0326 0.0000
vt 0.0975 0.0223 0.0000
vt 0.8954 0.0489 0.0000
vt 0.9527 0.0508 0.0000
vt 0.0277 0.0451 0.0000
# 165 texture coords

o Cliff_1
g Cliff_1
s 1
f 1/1/1 2/2/2 3/3/3 
f 3/3/3 4/4/4 1/1/1 
f 2/2/2 5/5/5 6/6/6 
f 6/6/6 3/3/3 2/2/2 
f 5/5/5 7/7/7 8/8/8 
f 8/8/8 6/6/6 5/5/5 
f 7/7/7 9/9/9 10/10/10 
f 10/10/10 8/8/8 7/7/7 
f 9/9/9 11/11/11 12/12/12 
f 12/12/12 10/10/10 9/9/9 
f 11/11/11 13/13/13 14/14/14 
f 14/14/14 12/12/12 11/11/11 
f 13/13/13 15/15/15 16/16/16 
f 16/16/16 14/14/14 13/13/13 
f 15/15/15 17/17/17 18/18/18 
f 18/18/18 16/16/16 15/15/15 
f 17/17/17 19/19/19 20/20/20 
f 20/20/20 18/18/18 17/17/17 
f 19/19/19 21/21/21 22/22/22 
f 22/22/22 20/20/20 19/19/19 
f 4/4/4 3/3/3 23/23/23 
f 23/23/23 24/24/24 4/4/4 
f 3/3/3 6/6/6 25/25/25 
f 25/25/25 23/23/23 3/3/3 
f 6/6/6 8/8/8 26/26/26 
f 26/26/26 25/25/25 6/6/6 
f 8/8/8 10/10/10 27/27/27 
f 27/27/27 26/26/26 8/8/8 
f 10/10/10 12/12/12 28/28/28 
f 28/28/28 27/27/27 10/10/10 
f 12/12/12 14/14/14 29/29/29 
f 29/29/29 28/28/28 12/12/12 
f 14/14/14 16/16/16 30/30/30 
f 30/30/30 29/29/29 14/14/14 
f 16/16/16 18/18/18 31/31/31 
f 31/31/31 30/30/30 16/16/16 
f 18/18/18 20/20/20 32/32/32 
f 32/32/32 31/31/31 18/18/18 
f 20/20/20 22/22/22 33/33/33 
f 33/33/33 32/32/32 20/20/20 
f 24/24/24 23/23/23 34/34/34 
f 34/34/34 35/35/35 24/24/24 
f 23/23/23 25/25/25 36/36/36 
f 36/36/36 34/34/34 23/23/23 
f 25/25/25 26/26/26 37/37/37 
f 37/37/37 36/36/36 25/25/25 
f 26/26/26 27/27/27 38/38/38 
f 38/38/38 37/37/37 26/26/26 
f 27/27/27 28/28/28 39/39/39 
f 39/39/39 38/38/38 27/27/27 
f 28/28/28 29/29/29 40/40/40 
f 40/40/40 39/39/39 28/28/28 
f 29/29/29 30/30/30 41/41/41 
f 41/41/41 40/40/40 29/29/29 
f 30/30/30 31/31/31 42/42/42 
f 42/42/42 41/41/41 30/30/30 
f 31/31/31 32/32/32 43/43/43 
f 43/43/43 42/42/42 31/31/31 
f 32/32/32 33/33/33 44/44/44 
f 44/44/44 43/43/43 32/32/32 
f 35/35/35 34/34/34 45/45/45 
f 45/45/45 46/46/46 35/35/35 
f 34/34/34 36/36/36 47/47/47 
f 47/47/47 45/45/45 34/34/34 
f 36/36/36 37/37/37 48/48/48 
f 48/48/48 47/47/47 36/36/36 
f 37/37/37 38/38/38 49/49/49 
f 49/49/49 48/48/48 37/37/37 
f 38/38/38 39/39/39 50/50/50 
f 50/50/50 49/49/49 38/38/38 
f 39/39/39 40/40/40 51/51/51 
f 51/51/51 50/50/50 39/39/39 
f 40/40/40 41/41/41 52/52/52 
f 52/52/52 51/51/51 40/40/40 
f 41/41/41 42/42/42 53/53/53 
f 53/53/53 52/52/52 41/41/41 
f 42/42/42 43/43/43 54/54/54 
f 54/54/54 53/53/53 42/42/42 
f 43/43/43 44/44/44 55/55/55 
f 55/55/55 54/54/54 43/43/43 
f 46/46/46 45/45/45 56/56/56 
f 56/56/56 57/57/57 46/46/46 
f 45/45/45 47/47/47 58/58/58 
f 58/58/58 56/56/56 45/45/45 
f 47/47/47 48/48/48 59/59/59 
f 59/59/59 58/58/58 47/47/47 
f 48/48/48 49/49/49 60/60/60 
f 60/60/60 59/59/59 48/48/48 
f 49/49/49 50/50/50 61/61/61 
f 61/61/61 60/60/60 49/49/49 
f 50/50/50 51/51/51 62/62/62 
f 62/62/62 61/61/61 50/50/50 
f 51/51/51 52/52/52 63/63/63 
f 63/63/63 62/62/62 51/51/51 
f 52/52/52 53/53/53 64/64/64 
f 64/64/64 63/63/63 52/52/52 
f 53/53/53 54/54/54 65/65/65 
f 65/65/65 64/64/64 53/53/53 
f 54/54/54 55/55/55 66/66/66 
f 66/66/66 65/65/65 54/54/54 
f 57/57/57 56/56/56 67/67/67 
f 67/67/67 68/68/68 57/57/57 
f 56/56/56 58/58/58 69/69/69 
f 69/69/69 67/67/67 56/56/56 
f 58/58/58 59/59/59 70/70/70 
f 70/70/70 69/69/69 58/58/58 
f 59/59/59 60/60/60 71/71/71 
f 71/71/71 70/70/70 59/59/59 
f 60/60/60 61/61/61 72/72/72 
f 72/72/72 71/71/71 60/60/60 
f 61/61/61 62/62/62 73/73/73 
f 73/73/73 72/72/72 61/61/61 
f 62/62/62 63/63/63 74/74/74 
f 74/74/74 73/73/73 62/62/62 
f 63/63/63 64/64/64 75/75/75 
f 75/75/75 74/74/74 63/63/63 
f 64/64/64 65/65/65 76/76/76 
f 76/76/76 75/75/75 64/64/64 
f 65/65/65 66/66/66 77/77/77 
f 77/77/77 76/76/76 65/65/65 
s 2
f 78/78/78 79/79/78 80/80/78 
f 80/80/78 81/81/78 78/78/78 
f 79/79/78 82/82/78 83/83/78 
f 83/83/78 80/80/78 79/79/78 
f 82/82/78 84/84/78 85/85/78 
f 85/85/78 83/83/78 82/82/78 
f 84/84/78 86/86/78 87/87/78 
f 87/87/78 85/85/78 84/84/78 
f 86/86/78 88/88/78 89/89/78 
f 89/89/78 87/87/78 86/86/78 
f 88/88/78 90/90/78 91/91/78 
f 91/91/78 89/89/78 88/88/78 
f 90/90/78 92/92/78 93/93/78 
f 93/93/78 91/91/78 90/90/78 
f 92/92/78 94/94/78 95/95/78 
f 95/95/78 93/93/78 92/92/78 
f 94/94/78 96/96/78 97/97/78 
f 97/97/78 95/95/78 94/94/78 
f 96/96/78 98/98/78 99/99/78 
f 99/99/78 97/97/78 96/96/78 
s 1
f 2/2/2 1/1/1 100/100/79 
f 100/100/79 101/101/80 2/2/2 
f 5/5/5 2/2/2 101/101/80 
f 101/101/80 102/102/81 5/5/5 
f 7/7/7 5/5/5 102/102/81 
f 102/102/81 103/103/82 7/7/7 
f 9/9/9 7/7/7 103/103/82 
f 103/103/82 104/104/83 9/9/9 
f 11/11/11 9/9/9 104/104/83 
f 104/104/83 105/105/84 11/11/11 
f 13/13/13 11/11/11 105/105/84 
f 105/105/84 106/106/85 13/13/13 
f 15/15/15 13/13/13 106/106/85 
f 106/106/85 107/107/86 15/15/15 
f 17/17/17 15/15/15 107/107/86 
f 107/107/86 108/108/87 17/17/17 
f 19/19/19 17/17/17 108/108/87 
f 108/108/87 109/109/88 19/19/19 
f 21/21/21 19/19/19 109/109/88 
f 109/109/88 110/110/89 21/21/21 
f 1/1/1 4/4/4 111/111/90 
f 111/111/90 112/112/91 1/1/1 
f 4/4/4 24/24/24 113/113/92 
f 113/113/92 111/111/90 4/4/4 
f 24/24/24 35/35/35 114/114/93 
f 114/114/93 113/113/92 24/24/24 
f 35/35/35 46/46/46 115/115/94 
f 115/115/94 114/114/93 35/35/35 
f 46/46/46 57/57/57 116/116/95 
f 116/116/95 115/115/94 46/46/46 
f 57/57/57 68/68/68 117/117/96 
f 117/117/96 116/116/95 57/57/57 
s 2
f 81/81/78 118/118/78 119/119/78 
f 119/119/78 78/78/78 81/81/78 
s 1
f 100/100/79 1/1/1 112/112/91 
f 112/112/91 120/120/97 100/100/79 
f 22/22/22 21/21/21 121/121/98 
f 121/121/98 122/122/99 22/22/22 
f 33/33/33 22/22/22 122/122/99 
f 122/122/99 123/123/100 33/33/33 
f 44/44/44 33/33/33 123/123/100 
f 123/123/100 124/124/101 44/44/44 
f 55/55/55 44/44/44 124/124/101 
f 124/124/101 125/125/102 55/55/55 
f 66/66/66 55/55/55 125/125/102 
f 125/125/102 126/126/103 66/66/66 
f 77/77/77 66/66/66 126/126/103 
f 126/126/103 127/127/104 77/77/77 
s 2
f 128/128/78 129/129/78 99/99/78 
f 99/99/78 98/98/78 128/128/78 
s 1
f 21/21/21 110/110/89 130/130/105 
f 130/130/105 121/121/98 21/21/21 
f 122/122/99 121/121/98 131/131/106 
f 131/131/106 132/132/107 122/122/99 
f 123/123/100 122/122/99 132/132/107 
f 132/132/107 133/133/108 123/123/100 
f 124/124/101 123/123/100 133/133/108 
f 133/133/108 134/134/109 124/124/101 
f 125/125/102 124/124/101 134/134/109 
f 134/134/109 135/135/110 125/125/102 
f 126/126/103 125/125/102 135/135/110 
f 135/135/110 136/136/111 126/126/103 
f 127/127/104 126/126/103 136/136/111 
f 136/136/111 137/137/112 127/127/104 
f 121/121/98 130/130/105 138/138/113 
f 138/138/113 131/131/106 121/121/98 
s 2
f 139/139/78 140/140/78 129/129/78 
f 129/129/78 128/128/78 139/139/78 
s 1
f 112/112/91 111/111/90 141/141/114 
f 141/141/114 142/142/115 112/112/91 
f 111/111/90 113/113/92 143/143/116 
f 143/143/116 141/141/114 111/111/90 
f 113/113/92 114/114/93 144/144/117 
f 144/144/117 143/143/116 113/113/92 
f 114/114/93 115/115/94 145/145/118 
f 145/145/118 144/144/117 114/114/93 
f 115/115/94 116/116/95 146/146/119 
f 146/146/119 145/145/118 115/115/94 
f 116/116/95 117/117/96 147/147/120 
f 147/147/120 146/146/119 116/116/95 
s 2
f 118/118/78 148/148/78 149/149/78 
f 149/149/78 119/119/78 118/118/78 
s 1
f 120/120/97 112/112/91 142/142/115 
f 142/142/115 150/150/121 120/120/97 
f 67/151/67 79/79/122 78/78/123 
f 78/78/123 68/152/68 67/151/67 
f 69/153/69 82/82/124 79/79/122 
f 79/79/122 67/151/67 69/153/69 
f 70/154/70 84/84/125 82/82/124 
f 82/82/124 69/153/69 70/154/70 
f 71/155/71 86/86/126 84/84/125 
f 84/84/125 70/154/70 71/155/71 
f 72/156/72 88/88/127 86/86/126 
f 86/86/126 71/155/71 72/156/72 
f 73/157/73 90/90/128 88/88/127 
f 88/88/127 72/156/72 73/157/73 
f 74/158/74 92/92/129 90/90/128 
f 90/90/128 73/157/73 74/158/74 
f 75/159/75 94/94/130 92/92/129 
f 92/92/129 74/158/74 75/159/75 
f 76/160/76 96/96/131 94/94/130 
f 94/94/130 75/159/75 76/160/76 
f 77/161/77 98/98/132 96/96/131 
f 96/96/131 76/160/76 77/161/77 
f 68/152/68 78/78/123 119/119/133 
f 119/119/133 117/162/96 68/152/68 
f 98/98/132 77/161/77 127/163/104 
f 127/163/104 128/128/134 98/98/132 
f 128/128/134 127/163/104 137/164/112 
f 137/164/112 139/139/135 128/128/134 
f 117/162/96 119/119/133 149/149/136 
f 149/149/136 147/165/120 117/162/96 
# 252 faces

