# 3ds Max Wavefront OBJ Exporter v0.97b - (c)2007 guruware
# File Created: 01.12.2017 17:29:11

#
# object Log_1
#

v  115.6251 4.3354 -118.2515
v  112.7032 6.6655 -118.2515
v  112.7032 10.4027 -118.2515
v  115.6251 12.7328 -118.2515
v  119.2686 11.9012 -118.2515
v  120.8901 8.5341 -118.2515
v  119.2686 5.1670 -118.2515
v  121.5421 8.5222 -117.7032
v  119.6751 12.3991 -117.7025
v  120.2402 12.8481 -105.7515
v  122.4485 8.2625 -105.7515
v  115.4800 13.3566 -117.7024
v  115.2783 13.9806 -105.7515
v  112.1157 10.6737 -117.7029
v  111.2991 10.8073 -105.7515
v  112.1158 6.3707 -117.7036
v  111.2991 5.7178 -105.7515
v  115.4800 3.6879 -117.7041
v  115.2783 2.5445 -105.7515
v  119.6751 4.6454 -117.7039
v  120.2402 3.6770 -105.7515
v  120.9478 15.0393 -93.2515
v  123.5834 9.5665 -93.2515
v  115.0258 16.3910 -93.2515
v  111.2431 12.6037 -93.2515
v  110.2766 6.5293 -93.2515
v  115.0258 2.7420 -93.2515
v  120.9478 4.0937 -93.2515
v  120.9478 14.5068 -80.7515
v  123.5834 9.5665 -80.7515
v  115.0258 16.3910 -80.7515
v  110.2766 12.6037 -80.7515
v  110.2766 6.5293 -80.7515
v  115.0258 2.7420 -80.7515
v  120.9478 4.0937 -80.7515
v  121.2304 13.8486 -68.8006
v  124.0366 9.5665 -68.8011
v  114.9248 13.3497 -68.7846
v  109.8683 12.8003 -68.8011
v  109.8683 6.3326 -68.8011
v  114.9249 2.3001 -68.8011
v  121.2304 3.7393 -68.8011
v  123.4263 9.5235 -68.2515
v  120.9670 13.2394 -68.2515
v  114.9683 12.6663 -68.2515
v  110.3995 12.3015 -68.2515
v  110.3995 6.5885 -68.2515
v  115.0561 2.8749 -68.2515
v  120.8628 4.2003 -68.2515
# 49 vertices

vn -0.0934 -0.4069 -0.9087
vn -0.3796 -0.1804 -0.9074
vn -0.3818 0.1863 -0.9053
vn -0.0946 0.4170 -0.9039
vn 0.2648 0.3345 -0.9044
vn 0.4225 0.0024 -0.9063
vn 0.2621 -0.3263 -0.9082
vn 0.9087 0.0028 -0.4174
vn 0.5682 0.7153 -0.4068
vn 0.6282 0.7694 -0.1157
vn 0.9965 -0.0179 -0.0817
vn -0.2029 0.8919 -0.4042
vn -0.2328 0.9659 -0.1136
vn -0.8201 0.3977 -0.4115
vn -0.9016 0.4247 -0.0823
vn -0.8174 -0.3908 -0.4233
vn -0.8921 -0.4473 -0.0637
vn -0.2015 -0.8798 -0.4305
vn -0.2186 -0.9749 -0.0422
vn 0.5649 -0.7055 -0.4279
vn 0.6142 -0.7876 -0.0497
vn 0.6174 0.7830 -0.0754
vn 0.9990 0.0164 -0.0423
vn -0.2632 0.9593 -0.1026
vn -0.8841 0.4625 -0.0669
vn -0.9339 -0.3574 -0.0121
vn -0.2257 -0.9742 0.0054
vn 0.6304 -0.7762 -0.0052
vn 0.6169 0.7842 0.0667
vn 0.9996 0.0266 -0.0109
vn -0.1501 0.9850 0.0847
vn -0.9050 0.4232 -0.0444
vn -0.9052 -0.4235 -0.0344
vn -0.2225 -0.9748 -0.0191
vn 0.6234 -0.7817 -0.0191
vn 0.4183 0.8211 0.3885
vn 0.9352 0.0613 0.3489
vn -0.0533 0.8545 0.5167
vn -0.7083 0.5655 0.4225
vn -0.8453 -0.4071 0.3460
vn -0.2088 -0.9147 0.3460
vn 0.5850 -0.7336 0.3460
vn 0.4496 0.0289 0.8928
vn 0.1966 0.3844 0.9020
vn -0.0333 0.3248 0.9452
vn -0.3230 0.2946 0.8994
vn -0.4050 -0.1950 0.8933
vn -0.1000 -0.4382 0.8933
vn 0.2803 -0.3514 0.8933
# 49 vertex normals

vt 0.7686 0.2843 0.0000
vt 0.8113 0.2308 0.0000
vt 0.8797 0.2308 0.0000
vt 0.9224 0.2843 0.0000
vt 0.9072 0.3510 0.0000
vt 0.8455 0.3807 0.0000
vt 0.7838 0.3510 0.0000
vt 0.3767 0.0915 0.0000
vt 0.4571 0.0912 0.0000
vt 0.4613 0.3176 0.0000
vt 0.3658 0.3149 0.0000
vt 0.5375 0.0862 0.0000
vt 0.5587 0.3130 0.0000
vt 0.6177 0.0767 0.0000
vt 0.6550 0.3010 0.0000
vt 0.6980 0.0624 0.0000
vt 0.7502 0.2838 0.0000
vt 0.1363 0.0610 0.0000
vt 0.2158 0.0765 0.0000
vt 0.1817 0.2961 0.0000
vt 0.0883 0.2818 0.0000
vt 0.2963 0.0867 0.0000
vt 0.2730 0.3071 0.0000
vt 0.4696 0.5438 0.0000
vt 0.3674 0.5399 0.0000
vt 0.5712 0.5425 0.0000
vt 0.6650 0.5347 0.0000
vt 0.7778 0.5213 0.0000
vt 0.1515 0.5221 0.0000
vt 0.0392 0.5125 0.0000
vt 0.2616 0.5315 0.0000
vt 0.4644 0.7584 0.0000
vt 0.3633 0.7604 0.0000
vt 0.5737 0.7529 0.0000
vt 0.6804 0.7591 0.0000
vt 0.7923 0.7555 0.0000
vt 0.1375 0.7545 0.0000
vt 0.0236 0.7473 0.0000
vt 0.2510 0.7591 0.0000
vt 0.4636 0.9768 0.0000
vt 0.3687 0.9815 0.0000
vt 0.5814 0.9742 0.0000
vt 0.6763 0.9790 0.0000
vt 0.7968 0.9784 0.0000
vt 0.1266 0.9786 0.0000
vt 0.0058 0.9710 0.0000
vt 0.2477 0.9824 0.0000
vt 0.9834 0.1377 0.0000
vt 0.9384 0.2057 0.0000
vt 0.8285 0.1952 0.0000
vt 0.7448 0.1886 0.0000
vt 0.7448 0.0839 0.0000
vt 0.8301 0.0159 0.0000
vt 0.9365 0.0402 0.0000
vt 0.4531 0.0787 0.0000
vt 0.3833 0.0791 0.0000
vt 0.5320 0.0737 0.0000
vt 0.4622 0.0780 0.0000
vt 0.6105 0.0649 0.0000
vt 0.5409 0.0730 0.0000
vt 0.6902 0.0508 0.0000
vt 0.6204 0.0633 0.0000
vt 0.2113 0.0631 0.0000
vt 0.1423 0.0495 0.0000
vt 0.2924 0.0744 0.0000
vt 0.2223 0.0655 0.0000
vt 0.3733 0.0793 0.0000
vt 0.3033 0.0752 0.0000
vt 0.9468 0.2313 0.0000
vt 1.0028 0.1528 0.0000
vt 0.8259 0.2134 0.0000
vt 0.9418 0.2242 0.0000
vt 0.7360 0.2110 0.0000
vt 0.8317 0.2184 0.0000
vt 0.7262 0.0636 0.0000
vt 0.7197 0.1839 0.0000
vt 0.8236 0.0002 0.0000
vt 0.7310 0.0741 0.0000
vt 0.9447 0.0253 0.0000
vt 0.8292 -0.0011 0.0000
vt 1.0000 0.1284 0.0000
vt 0.9457 0.0228 0.0000
# 82 texture coords

o Log_1
g Log_1
s 1
f 1/1/1 2/2/2 3/3/3 
f 3/3/3 4/4/4 5/5/5 
f 3/3/3 5/5/5 6/6/6 
f 1/1/1 3/3/3 6/6/6 
f 7/7/7 1/1/1 6/6/6 
f 8/8/8 9/9/9 10/10/10 
f 10/10/10 11/11/11 8/8/8 
f 9/9/9 12/12/12 13/13/13 
f 13/13/13 10/10/10 9/9/9 
f 12/12/12 14/14/14 15/15/15 
f 15/15/15 13/13/13 12/12/12 
f 14/14/14 16/16/16 17/17/17 
f 17/17/17 15/15/15 14/14/14 
f 16/18/16 18/19/18 19/20/19 
f 19/20/19 17/21/17 16/18/16 
f 18/19/18 20/22/20 21/23/21 
f 21/23/21 19/20/19 18/19/18 
f 20/22/20 8/8/8 11/11/11 
f 11/11/11 21/23/21 20/22/20 
f 11/11/11 10/10/10 22/24/22 
f 22/24/22 23/25/23 11/11/11 
f 10/10/10 13/13/13 24/26/24 
f 24/26/24 22/24/22 10/10/10 
f 13/13/13 15/15/15 25/27/25 
f 25/27/25 24/26/24 13/13/13 
f 15/15/15 17/17/17 26/28/26 
f 26/28/26 25/27/25 15/15/15 
f 17/21/17 19/20/19 27/29/27 
f 27/29/27 26/30/26 17/21/17 
f 19/20/19 21/23/21 28/31/28 
f 28/31/28 27/29/27 19/20/19 
f 21/23/21 11/11/11 23/25/23 
f 23/25/23 28/31/28 21/23/21 
f 23/25/23 22/24/22 29/32/29 
f 29/32/29 30/33/30 23/25/23 
f 22/24/22 24/26/24 31/34/31 
f 31/34/31 29/32/29 22/24/22 
f 24/26/24 25/27/25 32/35/32 
f 32/35/32 31/34/31 24/26/24 
f 25/27/25 26/28/26 33/36/33 
f 33/36/33 32/35/32 25/27/25 
f 26/30/26 27/29/27 34/37/34 
f 34/37/34 33/38/33 26/30/26 
f 27/29/27 28/31/28 35/39/35 
f 35/39/35 34/37/34 27/29/27 
f 28/31/28 23/25/23 30/33/30 
f 30/33/30 35/39/35 28/31/28 
f 30/33/30 29/32/29 36/40/36 
f 36/40/36 37/41/37 30/33/30 
f 29/32/29 31/34/31 38/42/38 
f 38/42/38 36/40/36 29/32/29 
f 31/34/31 32/35/32 39/43/39 
f 39/43/39 38/42/38 31/34/31 
f 32/35/32 33/36/33 40/44/40 
f 40/44/40 39/43/39 32/35/32 
f 33/38/33 34/37/34 41/45/41 
f 41/45/41 40/46/40 33/38/33 
f 34/37/34 35/39/35 42/47/42 
f 42/47/42 41/45/41 34/37/34 
f 35/39/35 30/33/30 37/41/37 
f 37/41/37 42/47/42 35/39/35 
f 43/48/43 44/49/44 45/50/45 
f 45/50/45 46/51/46 47/52/47 
f 45/50/45 47/52/47 48/53/48 
f 43/48/43 45/50/45 48/53/48 
f 49/54/49 43/48/43 48/53/48 
f 5/55/5 9/9/9 8/8/8 
f 8/8/8 6/56/6 5/55/5 
f 4/57/4 12/12/12 9/9/9 
f 9/9/9 5/58/5 4/57/4 
f 3/59/3 14/14/14 12/12/12 
f 12/12/12 4/60/4 3/59/3 
f 2/61/2 16/16/16 14/14/14 
f 14/14/14 3/62/3 2/61/2 
f 1/63/1 18/19/18 16/18/16 
f 16/18/16 2/64/2 1/63/1 
f 7/65/7 20/22/20 18/19/18 
f 18/19/18 1/66/1 7/65/7 
f 6/67/6 8/8/8 20/22/20 
f 20/22/20 7/68/7 6/67/6 
f 36/69/36 44/49/44 43/48/43 
f 43/48/43 37/70/37 36/69/36 
f 38/71/38 45/50/45 44/49/44 
f 44/49/44 36/72/36 38/71/38 
f 39/73/39 46/51/46 45/50/45 
f 45/50/45 38/74/38 39/73/39 
f 40/75/40 47/52/47 46/51/46 
f 46/51/46 39/76/39 40/75/40 
f 41/77/41 48/53/48 47/52/47 
f 47/52/47 40/78/40 41/77/41 
f 42/79/42 49/54/49 48/53/48 
f 48/53/48 41/80/41 42/79/42 
f 37/81/37 43/48/43 49/54/49 
f 49/54/49 42/82/42 37/81/37 
# 94 faces

