# 3ds Max Wavefront OBJ Exporter v0.97b - (c)2007 guruware
# File Created: 01.12.2017 17:16:39

#
# object Book
#

v  261.2249 102.6258 259.5927
v  281.9069 102.6258 259.5927
v  281.9069 102.6258 262.1827
v  262.1940 102.6258 262.1827
v  281.4969 132.6258 262.1827
v  281.4969 132.6258 259.5927
v  261.2249 132.6258 259.5927
v  262.1940 132.6258 262.1827
v  281.9069 132.2158 262.5927
v  262.3169 132.2158 262.5927
v  262.3169 103.0358 262.5927
v  281.9069 103.0358 262.5927
v  281.9069 132.2158 259.5927
v  262.3169 132.2158 256.5927
v  281.9069 132.2158 256.5927
v  281.9069 103.0358 256.5927
v  262.3169 103.0358 256.5927
v  260.8149 103.0358 259.5927
v  260.8149 132.2158 259.5927
v  261.7667 132.2158 256.9780
v  261.7667 103.0358 256.9780
v  262.1940 102.6258 257.0027
v  281.9069 102.6258 257.0027
v  281.4969 132.6258 257.0027
v  262.1940 132.6258 257.0027
v  261.7667 103.0358 262.2075
v  261.7667 132.2158 262.2075
# 27 vertices

vn 0.0000 -1.0000 -0.0000
vn 0.0000 1.0000 -0.0000
vn 0.0000 0.2880 0.9576
vn -0.2588 0.3377 0.9050
vn -0.2588 -0.3377 0.9050
vn 0.0000 -0.3827 0.9239
vn 1.0000 0.0000 -0.0000
vn -0.2588 0.3377 -0.9050
vn 0.0000 0.2880 -0.9576
vn 0.0000 -0.3827 -0.9239
vn -0.2588 -0.3377 -0.9050
vn -0.9341 -0.3569 0.0012
vn -0.9341 0.3569 -0.0012
vn -0.7619 0.3377 -0.5527
vn -0.7615 -0.3362 -0.5542
vn -0.7619 -0.3377 0.5527
vn -0.7615 0.3362 0.5542
vn -0.4068 -0.7046 0.5814
vn -0.4049 -0.7048 -0.5825
vn -0.4049 0.7048 0.5825
vn -0.4068 0.7046 -0.5814
vn -0.7058 -0.7084 0.0034
vn 0.0000 -0.7071 -0.7071
vn 0.0000 -0.7071 0.7071
vn 0.0000 0.7071 0.7071
vn 0.7071 0.7071 -0.0000
vn 0.0000 0.7071 -0.7071
vn -0.7058 0.7084 -0.0034
# 28 vertex normals

vt 0.6123 0.6164 0.0000
vt 0.9919 0.6164 0.0000
vt 0.9919 0.6640 0.0000
vt 0.6301 0.6640 0.0000
vt 0.6019 0.5689 0.0000
vt 0.6019 0.6164 0.0000
vt 0.2298 0.6164 0.0000
vt 0.2476 0.5689 0.0000
vt 0.4990 0.5512 0.0000
vt 0.1374 0.5512 0.0000
vt 0.1374 0.0126 0.0000
vt 0.4990 0.0126 0.0000
vt 0.9377 0.0089 0.0000
vt 0.9377 0.5310 0.0000
vt 0.8804 0.5310 0.0000
vt 0.8883 0.0089 0.0000
vt 0.8804 0.0162 0.0000
vt 0.8713 0.5512 0.0000
vt 0.5098 0.5512 0.0000
vt 0.5098 0.0126 0.0000
vt 0.8713 0.0126 0.0000
vt 0.0643 0.0131 0.0000
vt 0.0643 0.5902 0.0000
vt 0.0126 0.5902 0.0000
vt 0.0126 0.0131 0.0000
vt 0.6301 0.5689 0.0000
vt 0.9919 0.5689 0.0000
vt 0.6019 0.6640 0.0000
vt 0.2476 0.6640 0.0000
vt 0.9872 0.0089 0.0000
vt 0.9950 0.0162 0.0000
vt 0.9950 0.5310 0.0000
vt 0.1160 0.0131 0.0000
vt 0.1160 0.5902 0.0000
vt 0.1237 0.0131 0.0000
vt 0.1156 0.0050 0.0000
vt 0.0131 0.0050 0.0000
vt 0.0050 0.0131 0.0000
vt 0.1237 0.5902 0.0000
vt 0.1156 0.5983 0.0000
vt 0.0131 0.5983 0.0000
vt 0.0050 0.5902 0.0000
vt 0.0643 0.0050 0.0000
vt 0.8736 0.0050 0.0000
vt 0.5098 0.0050 0.0000
vt 0.4990 0.0050 0.0000
vt 0.1351 0.0050 0.0000
vt 0.1351 0.5587 0.0000
vt 0.4914 0.5587 0.0000
vt 0.8883 0.5412 0.0000
vt 0.9377 0.5412 0.0000
vt 0.5173 0.5587 0.0000
vt 0.8736 0.5587 0.0000
vt 0.0643 0.5983 0.0000
vt 0.9872 0.5412 0.0000
# 55 texture coords

o Book
g Book
s 1
f 1/1/1 2/2/1 3/3/1 
f 3/3/1 4/4/1 1/1/1 
f 5/5/2 6/6/2 7/7/2 
f 7/7/2 8/8/2 5/5/2 
s 2
f 9/9/3 10/10/4 11/11/5 
f 11/11/5 12/12/6 9/9/3 
s 4
f 2/13/7 13/14/7 9/15/7 
f 3/16/7 2/13/7 9/15/7 
f 12/17/7 3/16/7 9/15/7 
s 2
f 14/18/8 15/19/9 16/20/10 
f 16/20/10 17/21/11 14/18/8 
f 18/22/12 19/23/13 20/24/14 
f 20/24/14 21/25/15 18/22/12 
s 1
f 22/26/1 23/27/1 2/2/1 
f 2/2/1 1/1/1 22/26/1 
f 24/28/2 25/29/2 7/7/2 
f 7/7/2 6/6/2 24/28/2 
s 4
f 2/13/7 23/30/7 16/31/7 
f 16/31/7 15/32/7 13/14/7 
f 2/13/7 16/31/7 13/14/7 
s 2
f 26/33/16 27/34/17 19/23/13 
f 19/23/13 18/22/12 26/33/16 
f 11/35/5 26/33/16 4/36/18 
f 22/37/19 21/25/15 17/38/11 
f 10/39/4 8/40/20 27/34/17 
f 20/24/14 25/41/21 14/42/8 
f 4/36/18 26/33/16 18/22/12 
f 18/22/12 1/43/22 4/36/18 
f 22/44/19 17/21/11 16/20/10 
f 16/20/10 23/45/23 22/44/19 
f 3/46/24 12/12/6 11/11/5 
f 11/11/5 4/47/18 3/46/24 
f 8/48/20 10/10/4 9/9/3 
f 9/9/3 5/49/25 8/48/20 
s 8
f 5/50/26 9/15/26 13/14/26 
f 13/14/26 6/51/26 5/50/26 
s 2
f 24/52/27 15/19/9 14/18/8 
f 14/18/8 25/53/21 24/52/27 
f 25/41/21 20/24/14 19/23/13 
f 19/23/13 7/54/28 25/41/21 
f 10/39/4 27/34/17 26/33/16 
f 26/33/16 11/35/5 10/39/4 
f 17/38/11 21/25/15 20/24/14 
f 20/24/14 14/42/8 17/38/11 
f 1/43/22 18/22/12 21/25/15 
f 21/25/15 22/37/19 1/43/22 
s 8
f 6/51/26 13/14/26 15/32/26 
f 15/32/26 24/55/26 6/51/26 
s 2
f 7/54/28 19/23/13 27/34/17 
f 27/34/17 8/40/20 7/54/28 
# 50 faces

