# 3ds Max Wavefront OBJ Exporter v0.97b - (c)2007 guruware
# File Created: 01.12.2017 17:16:51

#
# object Clock
#

v  279.8280 100.8257 -17.1714
v  260.1480 100.8257 -17.1714
v  260.1480 108.5449 -17.1714
v  279.8280 108.5449 -17.1714
v  259.9880 100.8257 -7.5770
v  259.9880 111.2733 -7.5770
v  259.9880 108.4260 -17.0114
v  259.9880 100.8257 -17.0114
v  259.9880 100.8257 7.9039
v  279.9880 100.8257 7.9039
v  279.9880 100.8257 20.8115
v  259.9880 100.8257 20.8115
v  279.8280 125.2282 7.9039
v  260.1480 125.2282 7.9039
v  260.1480 130.3098 20.8115
v  279.8280 130.3098 20.8115
v  279.9880 125.0682 7.9039
v  279.9880 130.1498 20.8115
v  258.8854 114.3075 20.8115
v  258.8854 115.8212 20.8115
v  258.8854 115.7404 20.4746
v  258.8854 115.3082 20.1100
v  258.8854 114.8679 20.1143
v  258.8854 114.4729 20.4738
v  279.9880 100.8257 -7.5770
v  279.8280 111.4333 -7.5770
v  260.1480 111.4333 -7.5770
v  279.9880 111.2733 -7.5770
v  259.9880 118.4022 10.1465
v  259.9880 125.0762 7.9539
v  259.9880 110.8615 10.0968
v  279.9880 100.8257 -17.0114
v  279.9880 108.4260 -17.0114
v  259.9880 125.0635 20.8115
v  259.9880 130.1498 20.8115
v  259.9880 122.9376 14.4135
v  259.9880 106.8808 13.9601
v  259.9880 105.4527 20.8115
v  259.3586 122.9376 14.4135
v  259.3586 125.0635 20.8115
v  259.3586 118.4022 10.1465
v  259.3586 110.8615 10.0968
v  259.3586 106.8808 13.9601
v  259.3586 105.4527 20.8115
v  259.1985 124.9035 20.8115
v  259.1985 122.8155 14.5169
v  259.1985 115.8846 20.3869
v  259.1985 115.9812 20.8115
v  259.1985 118.3548 10.2993
v  259.1985 115.3660 19.9495
v  259.1985 110.9210 10.2453
v  259.1985 114.8053 19.9549
v  259.1985 107.0021 14.0645
v  259.1985 114.3404 20.3781
v  259.1985 105.6127 20.8115
v  259.1985 114.1475 20.8115
v  279.8280 100.8257 58.7944
v  279.8280 108.5449 58.7944
v  260.1480 108.5449 58.7944
v  260.1480 100.8257 58.7944
v  259.9880 100.8257 49.2000
v  259.9880 100.8257 58.6344
v  259.9880 108.4260 58.6344
v  259.9880 111.2733 49.2000
v  259.9880 100.8257 33.7191
v  279.9880 100.8257 33.7191
v  279.8280 125.2282 33.7191
v  260.1480 125.2282 33.7191
v  279.9880 125.0682 33.7191
v  258.8854 114.8679 21.5087
v  258.8854 115.3082 21.5129
v  258.8854 115.7404 21.1484
v  258.8854 114.4729 21.1492
v  279.9880 100.8257 49.2000
v  279.8280 111.4333 49.2000
v  260.1480 111.4333 49.2000
v  279.9880 111.2733 49.2000
v  259.9880 125.0762 33.6691
v  259.9880 118.4022 31.4765
v  259.9880 110.8615 31.5262
v  279.9880 100.8257 58.6344
v  279.9880 108.4260 58.6344
v  259.9880 122.9376 27.2095
v  259.9880 106.8808 27.6629
v  259.3586 122.9376 27.2095
v  259.3586 118.4022 31.4765
v  259.3586 110.8615 31.5262
v  259.3586 106.8808 27.6629
v  259.1985 115.8846 21.2361
v  259.1985 122.8155 27.1061
v  259.1985 115.3660 21.6735
v  259.1985 118.3548 31.3237
v  259.1985 114.8053 21.6681
v  259.1985 110.9210 31.3776
v  259.1985 114.3404 21.2449
v  259.1985 107.0021 27.5585
v  259.0454 115.8846 20.3869
v  259.0454 115.9812 20.8115
v  259.0454 115.3660 19.9495
v  259.0454 114.8053 19.9549
v  259.0454 114.3404 20.3781
v  259.0454 114.1475 20.8115
v  259.0454 114.3404 21.2449
v  259.0454 114.8053 21.6681
v  259.0454 115.3660 21.6735
v  259.0454 115.8846 21.2361
# 106 vertices

vn 0.0000 0.0000 -1.0000
vn -1.0000 0.0000 -0.0000
vn 0.0000 -1.0000 -0.0000
vn 0.3386 0.8092 -0.4802
vn 0.0000 0.8518 -0.5239
vn 0.0000 1.0000 -0.0000
vn 0.3543 0.9351 -0.0000
vn 1.0000 0.0000 -0.0000
vn 0.3599 0.8023 -0.4762
vn 0.0000 0.8727 -0.4883
vn 0.3121 0.9097 -0.2739
vn 0.0000 0.9576 -0.2883
vn 0.0000 0.8428 -0.5382
vn 0.0000 0.6852 -0.7283
vn 0.0000 0.0066 -1.0000
vn -0.0000 -0.6964 -0.7176
vn -0.0000 -0.8762 -0.4820
vn 0.0000 -0.6964 -0.7176
vn 0.0000 0.0000 1.0000
vn 0.3386 0.8092 0.4802
vn 0.0000 0.8518 0.5239
vn 0.3599 0.8023 0.4762
vn 0.0000 0.8727 0.4883
vn 0.3120 0.9097 0.2741
vn 0.0000 0.9576 0.2883
vn 0.0000 0.8428 0.5382
vn 0.0000 0.6852 0.7283
vn 0.0000 0.0066 1.0000
vn -0.0000 -0.6964 0.7176
vn 0.0000 -0.6964 0.7176
vn -0.0000 -0.8762 0.4820
vn 0.0000 0.8541 -0.5200
vn 0.0000 0.6448 -0.7644
vn 0.0000 -0.0097 -1.0000
vn 0.0000 -0.6731 -0.7395
vn 0.0000 -0.8107 -0.5855
vn 0.0000 -0.9136 -0.4065
vn 0.0000 -0.9136 0.4065
vn 0.0000 -0.8107 0.5855
vn 0.0000 -0.6731 0.7395
vn 0.0000 -0.0097 1.0000
vn 0.0000 0.6448 0.7644
vn 0.0000 0.8541 0.5200
vn -0.7070 0.6771 -0.2043
vn -0.7073 0.6768 -0.2042
vn -0.6662 0.6660 -0.3356
vn -0.6455 0.6451 -0.4089
vn 0.7071 0.0000 -0.7071
vn -0.7071 0.0000 -0.7071
vn 0.7071 0.7071 0.0000
vn 0.6369 0.6369 -0.4345
vn -0.6985 0.6155 -0.3651
vn -0.6952 0.6042 -0.3895
vn -0.7072 0.7070 0.0003
vn -0.7073 0.7070 0.0002
vn 0.6659 0.6659 -0.3363
vn 0.7069 0.6772 -0.2039
vn -0.7070 0.7072 -0.0002
vn -0.7046 0.5932 -0.3894
vn -0.7026 0.6065 -0.3721
vn -0.7067 0.2566 -0.6593
vn -0.7053 0.2760 -0.6530
vn -0.7072 -0.2632 -0.6562
vn -0.7074 -0.2634 -0.6559
vn -0.7006 -0.6175 -0.3576
vn -0.6969 -0.6400 -0.3236
vn -0.7067 -0.7075 0.0008
vn -0.7067 -0.7075 0.0009
vn -0.7071 0.0000 0.7071
vn 0.7071 0.0000 0.7071
vn -0.6451 0.6449 0.4098
vn -0.6662 0.6657 0.3362
vn -0.7069 0.6772 0.2039
vn -0.7071 0.6771 0.2038
vn 0.6369 0.6369 0.4345
vn -0.6954 0.6045 0.3887
vn -0.6984 0.6159 0.3645
vn 0.6661 0.6659 0.3360
vn 0.7073 0.6768 0.2042
vn -0.7030 0.6065 0.3714
vn -0.7040 0.5941 0.3892
vn -0.7058 0.2750 0.6529
vn -0.7061 0.2563 0.6601
vn -0.7072 -0.2645 0.6557
vn -0.7075 -0.2638 0.6556
vn -0.6962 -0.6408 0.3236
vn -0.7014 -0.6168 0.3572
vn -0.7088 0.7054 0.0033
vn -0.7088 0.7054 0.0022
vn -0.7240 0.5881 -0.3605
vn -0.7256 0.5853 -0.3618
vn -0.7295 0.2316 -0.6435
vn -0.7307 -0.2495 -0.6355
vn -0.7147 -0.5670 -0.4095
vn -0.7094 -0.5692 -0.4156
vn -0.7130 -0.7011 -0.0066
vn -0.7125 -0.7015 -0.0128
vn -0.7093 -0.5671 0.4188
vn -0.7146 -0.5587 0.4209
vn -0.7307 -0.2495 0.6355
vn -0.7295 0.2316 0.6435
vn -0.7256 0.5877 0.3578
vn -0.7240 0.5885 0.3597
# 103 vertex normals

vt 0.3704 0.1793 0.0000
vt 0.5325 0.1793 0.0000
vt 0.5325 0.2429 0.0000
vt 0.3704 0.2429 0.0000
vt 0.9897 0.2243 0.0000
vt 0.8690 0.2238 0.0000
vt 0.9023 0.1150 0.0000
vt 0.9901 0.1153 0.0000
vt 0.1948 0.2116 0.0000
vt 0.3596 0.2116 0.0000
vt 0.3596 0.3180 0.0000
vt 0.1948 0.3180 0.0000
vt 0.0064 0.2290 0.0000
vt 0.1822 0.2290 0.0000
vt 0.1822 0.3442 0.0000
vt 0.0064 0.3442 0.0000
vt 0.7884 0.0050 0.0000
vt 0.7884 0.2048 0.0000
vt 0.6820 0.2466 0.0000
vt 0.6820 0.0050 0.0000
vt 0.3983 0.3986 0.0000
vt 0.3983 0.4111 0.0000
vt 0.3948 0.4105 0.0000
vt 0.3917 0.4070 0.0000
vt 0.3918 0.4031 0.0000
vt 0.3947 0.3999 0.0000
vt 0.1948 0.0841 0.0000
vt 0.3596 0.0841 0.0000
vt 0.0064 0.0907 0.0000
vt 0.1822 0.0907 0.0000
vt 0.9159 0.0050 0.0000
vt 0.9159 0.0911 0.0000
vt 0.7858 0.4282 0.0000
vt 0.7088 0.4025 0.0000
vt 0.8729 0.4280 0.0000
vt 0.9889 0.4031 0.0000
vt 0.1948 0.0063 0.0000
vt 0.1961 0.0050 0.0000
vt 0.3582 0.0050 0.0000
vt 0.3596 0.0063 0.0000
vt 0.0064 0.0050 0.0000
vt 0.1822 0.0050 0.0000
vt 0.9937 0.0050 0.0000
vt 0.9937 0.0676 0.0000
vt 0.7084 0.5510 0.0000
vt 0.6496 0.5508 0.0000
vt 0.7332 0.4772 0.0000
vt 0.9187 0.4728 0.0000
vt 0.9883 0.5522 0.0000
vt 0.9349 0.5520 0.0000
vt 0.0244 0.9041 0.0000
vt 0.0244 0.8822 0.0000
vt 0.0311 0.8822 0.0000
vt 0.0311 0.9041 0.0000
vt 0.0244 0.8342 0.0000
vt 0.0311 0.8342 0.0000
vt 0.0244 0.7536 0.0000
vt 0.0311 0.7536 0.0000
vt 0.0244 0.7105 0.0000
vt 0.0311 0.7105 0.0000
vt 0.0244 0.6944 0.0000
vt 0.0311 0.6944 0.0000
vt 0.1320 0.8546 0.0000
vt 0.0801 0.8374 0.0000
vt 0.1285 0.7803 0.0000
vt 0.1320 0.7811 0.0000
vt 0.0454 0.8007 0.0000
vt 0.1249 0.7760 0.0000
vt 0.0450 0.7394 0.0000
vt 0.1250 0.7714 0.0000
vt 0.0764 0.7071 0.0000
vt 0.1284 0.7676 0.0000
vt 0.1320 0.6957 0.0000
vt 0.1320 0.7660 0.0000
vt 0.5325 0.4310 0.0000
vt 0.5325 0.4946 0.0000
vt 0.3704 0.4946 0.0000
vt 0.3704 0.4310 0.0000
vt 0.9869 0.8801 0.0000
vt 0.9865 0.9891 0.0000
vt 0.8987 0.9887 0.0000
vt 0.8663 0.8796 0.0000
vt 0.1948 0.4243 0.0000
vt 0.3596 0.4243 0.0000
vt 0.0064 0.4595 0.0000
vt 0.1822 0.4595 0.0000
vt 0.5757 0.0050 0.0000
vt 0.5757 0.2048 0.0000
vt 0.4048 0.4031 0.0000
vt 0.4048 0.4070 0.0000
vt 0.4018 0.4105 0.0000
vt 0.4018 0.3999 0.0000
vt 0.1948 0.5519 0.0000
vt 0.3596 0.5519 0.0000
vt 0.0064 0.5978 0.0000
vt 0.1822 0.5978 0.0000
vt 0.4481 0.0911 0.0000
vt 0.4481 0.0050 0.0000
vt 0.7076 0.6996 0.0000
vt 0.7848 0.6746 0.0000
vt 0.8719 0.6755 0.0000
vt 0.9877 0.7013 0.0000
vt 0.3596 0.6296 0.0000
vt 0.3582 0.6310 0.0000
vt 0.1961 0.6310 0.0000
vt 0.1948 0.6296 0.0000
vt 0.0064 0.6835 0.0000
vt 0.1822 0.6835 0.0000
vt 0.3704 0.0676 0.0000
vt 0.3704 0.0050 0.0000
vt 0.7326 0.6250 0.0000
vt 0.9180 0.6311 0.0000
vt 0.0134 0.9041 0.0000
vt 0.0067 0.9041 0.0000
vt 0.0067 0.8822 0.0000
vt 0.0134 0.8822 0.0000
vt 0.0067 0.8342 0.0000
vt 0.0134 0.8342 0.0000
vt 0.0067 0.7536 0.0000
vt 0.0134 0.7536 0.0000
vt 0.0067 0.7105 0.0000
vt 0.0134 0.7105 0.0000
vt 0.0067 0.6944 0.0000
vt 0.0134 0.6944 0.0000
vt 0.1355 0.7803 0.0000
vt 0.1839 0.8374 0.0000
vt 0.1391 0.7760 0.0000
vt 0.2186 0.8007 0.0000
vt 0.1391 0.7714 0.0000
vt 0.2191 0.7394 0.0000
vt 0.1356 0.7676 0.0000
vt 0.1876 0.7071 0.0000
vt 0.3842 0.4159 0.0000
vt 0.3842 0.4149 0.0000
vt 0.3857 0.4149 0.0000
vt 0.3857 0.4159 0.0000
vt 0.3842 0.4096 0.0000
vt 0.3857 0.4096 0.0000
vt 0.3842 0.4039 0.0000
vt 0.3857 0.4039 0.0000
vt 0.3842 0.3992 0.0000
vt 0.3857 0.3992 0.0000
vt 0.3842 0.3973 0.0000
vt 0.3857 0.3973 0.0000
vt 0.3804 0.3973 0.0000
vt 0.3804 0.3992 0.0000
vt 0.3788 0.3992 0.0000
vt 0.3788 0.3973 0.0000
vt 0.3804 0.4039 0.0000
vt 0.3788 0.4039 0.0000
vt 0.3804 0.4096 0.0000
vt 0.3788 0.4096 0.0000
vt 0.3804 0.4149 0.0000
vt 0.3788 0.4149 0.0000
vt 0.3804 0.4159 0.0000
vt 0.3788 0.4159 0.0000
vt 0.8989 0.1140 0.0000
vt 0.8657 0.2249 0.0000
vt 0.3686 0.1792 0.0000
vt 0.3687 0.2420 0.0000
vt 0.9913 0.1124 0.0000
vt 0.9022 0.1116 0.0000
vt 0.6820 0.2484 0.0000
vt 0.7884 0.2066 0.0000
vt 0.7060 0.4012 0.0000
vt 0.6465 0.5500 0.0000
vt 0.7883 0.2066 0.0000
vt 0.9161 0.0932 0.0000
vt 0.8663 0.2229 0.0000
vt 0.7061 0.4010 0.0000
vt 0.9152 0.0934 0.0000
vt 0.9943 0.0701 0.0000
vt 0.0332 0.9040 0.0000
vt 0.0331 0.8824 0.0000
vt 0.0339 0.8821 0.0000
vt 0.0338 0.8348 0.0000
vt 0.0343 0.8337 0.0000
vt 0.0343 0.7542 0.0000
vt 0.0338 0.7531 0.0000
vt 0.0339 0.7106 0.0000
vt 0.0330 0.7103 0.0000
vt 0.0330 0.6944 0.0000
vt 0.8985 0.9921 0.0000
vt 0.9876 0.9921 0.0000
vt 0.5342 0.4937 0.0000
vt 0.5343 0.4309 0.0000
vt 0.8630 0.8785 0.0000
vt 0.8953 0.9896 0.0000
vt 0.5757 0.2066 0.0000
vt 0.6465 0.5516 0.0000
vt 0.7047 0.7008 0.0000
vt 0.4480 0.0932 0.0000
vt 0.5758 0.2066 0.0000
vt 0.7049 0.7011 0.0000
vt 0.8635 0.8805 0.0000
vt 0.3697 0.0701 0.0000
vt 0.4489 0.0934 0.0000
vt 0.0047 0.8824 0.0000
vt 0.0047 0.9040 0.0000
vt 0.0040 0.8348 0.0000
vt 0.0039 0.8821 0.0000
vt 0.0035 0.7542 0.0000
vt 0.0035 0.8337 0.0000
vt 0.0039 0.7106 0.0000
vt 0.0040 0.7531 0.0000
vt 0.0048 0.6944 0.0000
vt 0.0048 0.7103 0.0000
vt 0.3876 0.4158 0.0000
vt 0.3867 0.4148 0.0000
vt 0.3877 0.4145 0.0000
vt 0.3879 0.4100 0.0000
vt 0.3883 0.4090 0.0000
vt 0.3883 0.4045 0.0000
vt 0.3878 0.4034 0.0000
vt 0.3877 0.3995 0.0000
vt 0.3871 0.3994 0.0000
vt 0.3878 0.3976 0.0000
vt 0.3767 0.3976 0.0000
vt 0.3774 0.3994 0.0000
vt 0.3769 0.3995 0.0000
vt 0.3768 0.4034 0.0000
vt 0.3763 0.4045 0.0000
vt 0.3763 0.4090 0.0000
vt 0.3767 0.4100 0.0000
vt 0.3769 0.4145 0.0000
vt 0.3779 0.4148 0.0000
vt 0.3770 0.4158 0.0000
# 227 texture coords

o Clock
g Clock
s 1
f 1/1/1 2/2/1 3/3/1 
f 3/3/1 4/4/1 1/1/1 
f 5/5/2 6/6/2 7/7/2 
f 7/7/2 8/8/2 5/5/2 
s 2
f 9/9/3 10/10/3 11/11/3 
f 11/11/3 12/12/3 9/9/3 
f 13/13/4 14/14/5 15/15/6 
f 15/15/6 16/16/7 13/13/4 
s 1
f 10/17/8 17/18/8 18/19/8 
f 18/19/8 11/20/8 10/17/8 
f 19/21/2 20/22/2 21/23/2 
f 21/23/2 22/24/2 23/25/2 
f 19/21/2 21/23/2 23/25/2 
f 24/26/2 19/21/2 23/25/2 
s 2
f 5/27/3 25/28/3 10/10/3 
f 10/10/3 9/9/3 5/27/3 
f 26/29/9 27/30/10 14/14/5 
f 14/14/5 13/13/4 26/29/9 
s 1
f 10/17/8 25/31/8 28/32/8 
f 28/32/8 17/18/8 10/17/8 
f 29/33/2 30/34/2 6/6/2 
f 31/35/2 29/33/2 6/6/2 
f 9/36/2 31/35/2 6/6/2 
f 5/5/2 9/36/2 6/6/2 
s 2
f 5/27/3 8/37/3 2/38/3 
f 2/38/3 1/39/3 32/40/3 
f 2/38/3 32/40/3 25/28/3 
f 5/27/3 2/38/3 25/28/3 
f 4/41/11 3/42/12 27/30/10 
f 27/30/10 26/29/9 4/41/11 
s 1
f 25/31/8 32/43/8 33/44/8 
f 33/44/8 28/32/8 25/31/8 
f 34/45/2 35/46/2 30/34/2 
f 30/34/2 29/33/2 36/47/2 
f 34/45/2 30/34/2 36/47/2 
f 37/48/2 31/35/2 9/36/2 
f 37/48/2 9/36/2 12/49/2 
f 37/48/2 12/49/2 38/50/2 
s 2
f 34/51/6 36/52/13 39/53/13 
f 39/53/13 40/54/6 34/51/6 
f 36/52/13 29/55/14 41/56/14 
f 41/56/14 39/53/13 36/52/13 
s 4
f 29/55/15 31/57/15 42/58/15 
f 42/58/15 41/56/15 29/55/15 
s 2
f 31/57/16 37/59/17 43/60/17 
f 43/60/17 42/58/18 31/57/16 
f 37/59/17 38/61/3 44/62/3 
f 44/62/3 43/60/17 37/59/17 
s 1
f 45/63/2 46/64/2 47/65/2 
f 47/65/2 48/66/2 45/63/2 
f 46/64/2 49/67/2 50/68/2 
f 50/68/2 47/65/2 46/64/2 
f 49/67/2 51/69/2 52/70/2 
f 52/70/2 50/68/2 49/67/2 
f 51/69/2 53/71/2 54/72/2 
f 54/72/2 52/70/2 51/69/2 
f 53/71/2 55/73/2 56/74/2 
f 56/74/2 54/72/2 53/71/2 
f 57/75/19 58/76/19 59/77/19 
f 59/77/19 60/78/19 57/75/19 
f 61/79/2 62/80/2 63/81/2 
f 63/81/2 64/82/2 61/79/2 
s 2
f 65/83/3 12/12/3 11/11/3 
f 11/11/3 66/84/3 65/83/3 
f 67/85/20 16/16/7 15/15/6 
f 15/15/6 68/86/21 67/85/20 
s 1
f 66/87/8 11/20/8 18/19/8 
f 18/19/8 69/88/8 66/87/8 
f 70/89/2 71/90/2 72/91/2 
f 72/91/2 20/22/2 19/21/2 
f 70/89/2 72/91/2 19/21/2 
f 73/92/2 70/89/2 19/21/2 
s 2
f 61/93/3 65/83/3 66/84/3 
f 66/84/3 74/94/3 61/93/3 
f 75/95/22 67/85/20 68/86/21 
f 68/86/21 76/96/23 75/95/22 
s 1
f 66/87/8 69/88/8 77/97/8 
f 77/97/8 74/98/8 66/87/8 
f 64/82/2 78/99/2 79/100/2 
f 64/82/2 79/100/2 80/101/2 
f 64/82/2 80/101/2 65/102/2 
f 61/79/2 64/82/2 65/102/2 
s 2
f 74/94/3 81/103/3 57/104/3 
f 57/104/3 60/105/3 62/106/3 
f 74/94/3 57/104/3 62/106/3 
f 61/93/3 74/94/3 62/106/3 
f 58/107/24 75/95/22 76/96/23 
f 76/96/23 59/108/25 58/107/24 
s 1
f 74/98/8 77/97/8 82/109/8 
f 82/109/8 81/110/8 74/98/8 
f 83/111/2 79/100/2 78/99/2 
f 34/45/2 83/111/2 78/99/2 
f 34/45/2 78/99/2 35/46/2 
f 84/112/2 38/50/2 12/49/2 
f 84/112/2 12/49/2 65/102/2 
f 84/112/2 65/102/2 80/101/2 
s 2
f 34/113/6 40/114/6 85/115/26 
f 85/115/26 83/116/26 34/113/6 
f 83/116/26 85/115/26 86/117/27 
f 86/117/27 79/118/27 83/116/26 
s 4
f 79/118/28 86/117/28 87/119/28 
f 87/119/28 80/120/28 79/118/28 
s 2
f 80/120/29 87/119/30 88/121/31 
f 88/121/31 84/122/31 80/120/29 
f 84/122/31 88/121/31 44/123/3 
f 44/123/3 38/124/3 84/122/31 
s 1
f 45/63/2 48/66/2 89/125/2 
f 89/125/2 90/126/2 45/63/2 
f 90/126/2 89/125/2 91/127/2 
f 91/127/2 92/128/2 90/126/2 
f 92/128/2 91/127/2 93/129/2 
f 93/129/2 94/130/2 92/128/2 
f 94/130/2 93/129/2 95/131/2 
f 95/131/2 96/132/2 94/130/2 
f 96/132/2 95/131/2 56/74/2 
f 56/74/2 55/73/2 96/132/2 
s 2
f 48/133/6 47/134/32 97/135/32 
f 97/135/32 98/136/6 48/133/6 
f 47/134/32 50/137/33 99/138/33 
f 99/138/33 97/135/32 47/134/32 
s 4
f 50/137/34 52/139/34 100/140/34 
f 100/140/34 99/138/34 50/137/34 
s 2
f 52/139/35 54/141/36 101/142/36 
f 101/142/36 100/140/35 52/139/35 
f 54/141/36 56/143/37 102/144/37 
f 102/144/37 101/142/36 54/141/36 
s 4
f 56/145/38 95/146/39 103/147/39 
f 103/147/39 102/148/38 56/145/38 
f 95/146/39 93/149/40 104/150/40 
f 104/150/40 103/147/39 95/146/39 
s 8
f 93/149/41 91/151/41 105/152/41 
f 105/152/41 104/150/41 93/149/41 
s 2
f 91/151/42 89/153/43 106/154/43 
f 106/154/43 105/152/42 91/151/42 
f 89/153/43 48/155/6 98/156/6 
f 98/156/6 106/154/43 89/153/43 
s 4
f 3/157/44 7/7/45 6/6/46 
f 6/6/46 27/158/47 3/157/44 
f 32/159/48 1/1/48 4/4/48 
f 4/4/48 33/160/48 32/159/48 
s 8
f 2/161/49 8/8/49 7/7/49 
f 7/7/49 3/162/49 2/161/49 
s 2
f 16/163/7 18/19/50 17/18/51 
f 17/18/51 13/164/4 16/163/7 
s 4
f 14/165/52 30/34/53 35/46/54 
f 35/46/54 15/166/55 14/165/52 
s 2
f 13/167/4 17/18/51 28/32/56 
f 28/32/56 26/168/9 13/167/4 
s 4
f 27/169/47 6/6/46 30/34/53 
f 30/34/53 14/170/52 27/169/47 
s 2
f 26/171/9 28/32/56 33/44/57 
f 33/44/57 4/172/11 26/171/9 
s 8
f 45/173/58 40/54/58 39/53/59 
f 39/53/59 46/174/60 45/173/58 
f 46/175/60 39/53/59 41/56/61 
f 41/56/61 49/176/62 46/175/60 
f 49/177/62 41/56/61 42/58/63 
f 42/58/63 51/178/64 49/177/62 
f 51/179/64 42/58/63 43/60/65 
f 43/60/65 53/180/66 51/179/64 
f 53/181/66 43/60/65 44/62/67 
f 44/62/67 55/182/68 53/181/66 
f 59/183/69 63/81/69 62/80/69 
f 62/80/69 60/184/69 59/183/69 
s 4
f 82/185/70 58/76/70 57/75/70 
f 57/75/70 81/186/70 82/185/70 
f 76/187/71 64/82/72 63/81/73 
f 63/81/73 59/188/74 76/187/71 
s 2
f 67/189/20 69/88/75 18/19/50 
f 18/19/50 16/163/7 67/189/20 
s 4
f 15/190/55 35/46/54 78/99/76 
f 78/99/76 68/191/77 15/190/55 
s 2
f 75/192/22 77/97/78 69/88/75 
f 69/88/75 67/193/20 75/192/22 
s 4
f 68/194/77 78/99/76 64/82/72 
f 64/82/72 76/195/71 68/194/77 
s 2
f 58/196/24 82/109/79 77/97/78 
f 77/97/78 75/197/22 58/196/24 
s 8
f 90/198/80 85/115/81 40/114/58 
f 40/114/58 45/199/58 90/198/80 
f 92/200/82 86/117/83 85/115/81 
f 85/115/81 90/201/80 92/200/82 
f 94/202/84 87/119/85 86/117/83 
f 86/117/83 92/203/82 94/202/84 
f 96/204/86 88/121/87 87/119/85 
f 87/119/85 94/205/84 96/204/86 
f 55/206/68 44/123/67 88/121/87 
f 88/121/87 96/207/86 55/206/68 
s 16
f 20/208/88 98/136/89 97/135/90 
f 97/135/90 21/209/91 20/208/88 
f 21/210/91 97/135/90 99/138/92 
f 99/138/92 22/211/92 21/210/91 
f 22/212/92 99/138/92 100/140/93 
f 100/140/93 23/213/93 22/212/92 
f 23/214/93 100/140/93 101/142/94 
f 101/142/94 24/215/95 23/214/93 
f 24/216/95 101/142/94 102/144/96 
f 102/144/96 19/217/97 24/216/95 
f 19/218/97 102/148/96 103/147/98 
f 103/147/98 73/219/99 19/218/97 
f 73/220/99 103/147/98 104/150/100 
f 104/150/100 70/221/100 73/220/99 
f 70/222/100 104/150/100 105/152/101 
f 105/152/101 71/223/101 70/222/100 
f 71/224/101 105/152/101 106/154/102 
f 106/154/102 72/225/103 71/224/101 
f 72/226/103 106/154/102 98/156/89 
f 98/156/89 20/227/88 72/226/103 
# 208 faces

