# 3ds Max Wavefront OBJ Exporter v0.97b - (c)2007 guruware
# File Created: 01.12.2017 17:17:00

#
# object Cup
#

v  -24.1721 73.6253 41.6416
v  -28.2428 73.6253 38.3953
v  -28.2428 73.6253 33.1887
v  -24.1721 73.6253 29.9424
v  -19.0961 73.6253 31.1010
v  -16.8370 73.6253 35.7920
v  -19.0961 73.6253 40.4830
v  -18.8789 83.6253 30.8287
v  -16.4887 83.6253 35.7920
v  -24.2496 83.6253 29.6029
v  -28.5566 83.6253 33.0376
v  -28.5566 83.6253 38.5464
v  -24.2496 83.6253 41.9811
v  -18.8789 83.6253 40.7553
v  -18.0046 76.7627 35.7920
v  -19.8241 76.7627 32.0139
v  -23.9123 76.7627 31.0808
v  -27.1908 76.7627 33.6953
v  -27.1908 76.7627 37.8887
v  -23.9123 76.7627 40.5032
v  -19.8241 76.7627 39.5701
v  -17.0170 93.6253 35.7920
v  -19.2083 93.6253 31.2417
v  -19.7119 93.6253 31.8732
v  -17.8246 93.6253 35.7920
v  -24.1321 93.6253 30.1179
v  -23.9524 93.6253 30.9053
v  -28.0806 93.6253 33.2668
v  -27.3530 93.6253 33.6172
v  -28.0806 93.6253 38.3172
v  -27.3530 93.6253 37.9668
v  -24.1321 93.6253 41.4661
v  -23.9524 93.6253 40.6787
v  -19.2083 93.6253 40.3423
v  -19.7119 93.6253 39.7108
v  -18.0046 93.4453 35.7920
v  -19.8241 93.4453 32.0139
v  -23.9123 93.4453 31.0808
v  -27.1908 93.4453 33.6953
v  -27.1908 93.4453 37.8887
v  -23.9123 93.4453 40.5032
v  -19.8241 93.4453 39.5701
v  -19.0922 93.4454 31.0961
v  -16.8307 93.4454 35.7920
v  -24.1735 93.4454 29.9363
v  -28.2485 93.4454 33.1860
v  -28.2485 93.4454 38.3980
v  -24.1735 93.4454 41.6477
v  -19.0922 93.4454 40.4879
# 49 vertices

vn 0.0000 -1.0000 -0.0000
vn 0.6231 -0.0348 -0.7814
vn 0.6235 0.0000 -0.7818
vn 1.0000 0.0000 0.0000
vn 0.9994 -0.0348 0.0000
vn -0.2224 -0.0348 -0.9743
vn -0.2225 0.0000 -0.9749
vn -0.9004 -0.0348 -0.4336
vn -0.9010 -0.0000 -0.4339
vn -0.9004 -0.0348 0.4336
vn -0.9010 0.0000 0.4339
vn -0.2224 -0.0348 0.9743
vn -0.2225 0.0000 0.9749
vn 0.6231 -0.0348 0.7814
vn 0.6235 0.0000 0.7818
vn 0.0000 1.0000 -0.0000
vn 0.4587 0.8886 0.0000
vn 0.2860 0.8886 -0.3586
vn -0.1761 0.9593 0.2208
vn -0.2824 0.9593 -0.0000
vn -0.1021 0.8886 -0.4472
vn 0.0628 0.9593 0.2753
vn -0.4132 0.8886 -0.1990
vn 0.2545 0.9593 0.1225
vn -0.4132 0.8886 0.1990
vn 0.2545 0.9593 -0.1225
vn -0.1021 0.8886 0.4472
vn 0.0628 0.9593 -0.2753
vn 0.2860 0.8886 0.3586
vn -0.1761 0.9593 -0.2208
vn -0.9047 0.4261 -0.0000
vn -0.5641 0.4261 0.7073
vn -0.6235 0.0000 0.7818
vn -1.0000 0.0000 -0.0000
vn 0.2013 0.4261 0.8820
vn 0.2225 0.0000 0.9749
vn 0.8151 0.4261 0.3925
vn 0.9010 0.0000 0.4339
vn 0.8151 0.4261 -0.3925
vn 0.9010 0.0000 -0.4339
vn 0.2013 0.4261 -0.8820
vn 0.2225 0.0000 -0.9749
vn -0.5641 0.4261 -0.7073
vn -0.6235 0.0000 -0.7818
vn 0.5786 0.3725 -0.7256
vn 0.9280 0.3725 0.0000
vn -0.2065 0.3725 -0.9048
vn -0.8361 0.3725 -0.4027
vn -0.8361 0.3725 0.4027
vn -0.2065 0.3725 0.9048
vn 0.5786 0.3725 0.7256
# 51 vertex normals

vt 0.5538 0.8328 0.0000
vt 0.6256 0.7428 0.0000
vt 0.7408 0.7428 0.0000
vt 0.8125 0.8328 0.0000
vt 0.7869 0.9450 0.0000
vt 0.6832 0.9950 0.0000
vt 0.5794 0.9450 0.0000
vt 0.1241 0.0142 -0.0247
vt 0.1257 0.2418 -0.0050
vt 0.0050 0.2431 -0.0064
vt 0.0069 0.0147 -0.0263
vt 0.2383 0.0129 -0.0119
vt 0.2410 0.2409 0.0075
vt 0.3505 0.0117 0.0065
vt 0.3532 0.2400 0.0263
vt 0.4620 0.0109 0.0065
vt 0.4644 0.2393 0.0263
vt 0.5741 0.0104 -0.0119
vt 0.5769 0.2390 0.0075
vt 0.6876 0.0093 -0.0247
vt 0.6931 0.2388 -0.0050
vt 0.8041 0.0050 -0.0263
vt 0.8164 0.2334 -0.0064
vt 0.8829 0.6438 0.0000
vt 0.9665 0.6840 0.0000
vt 0.9871 0.7744 0.0000
vt 0.9293 0.8469 0.0000
vt 0.8366 0.8469 0.0000
vt 0.7788 0.7744 0.0000
vt 0.7994 0.6840 0.0000
vt 0.6892 0.4789 0.0000
vt 0.7916 0.5267 0.0000
vt 0.7780 0.5376 0.0000
vt 0.6890 0.4964 0.0000
vt 0.8187 0.6358 0.0000
vt 0.8016 0.6317 0.0000
vt 0.7467 0.7242 0.0000
vt 0.7393 0.7080 0.0000
vt 0.6317 0.7242 0.0000
vt 0.6395 0.7083 0.0000
vt 0.5598 0.6359 0.0000
vt 0.5769 0.6323 0.0000
vt 0.5868 0.5267 0.0000
vt 0.6002 0.5380 0.0000
vt 0.0050 0.9243 -0.0178
vt 0.0850 0.9243 -0.0149
vt 0.0850 0.4773 -0.0149
vt 0.0050 0.4773 -0.0178
vt 0.1640 0.9243 -0.0005
vt 0.1640 0.4773 -0.0005
vt 0.2377 0.9243 0.0178
vt 0.2377 0.4773 0.0178
vt 0.3081 0.9243 0.0178
vt 0.3081 0.4773 0.0178
vt 0.3818 0.9243 -0.0005
vt 0.3818 0.4773 -0.0005
vt 0.4608 0.9243 -0.0149
vt 0.4608 0.4773 -0.0149
vt 0.5408 0.9243 -0.0178
vt 0.5408 0.4773 -0.0178
vt 0.1291 0.4661 -0.0243
vt 0.0123 0.4683 -0.0260
vt 0.2434 0.4650 -0.0116
vt 0.3553 0.4640 0.0068
vt 0.4660 0.4631 0.0068
vt 0.5770 0.4627 -0.0116
vt 0.6898 0.4637 -0.0243
vt 0.8056 0.4682 -0.0260
vt 0.8171 0.2438 -0.0064
vt 0.6892 0.4729 0.0000
vt 0.7963 0.5229 0.0000
vt 0.8246 0.6372 0.0000
vt 0.7493 0.7297 0.0000
vt 0.6291 0.7297 0.0000
vt 0.5538 0.6372 0.0000
vt 0.5822 0.5229 0.0000
vt 0.6890 0.5021 0.0000
vt 0.7737 0.5412 0.0000
vt 0.7961 0.6305 0.0000
vt 0.7369 0.7029 0.0000
vt 0.6420 0.7031 0.0000
vt 0.5824 0.6310 0.0000
vt 0.6045 0.5416 0.0000
# 83 texture coords

o Cup
g Cup
s 1
f 1/1/1 2/2/1 3/3/1 
f 3/3/1 4/4/1 5/5/1 
f 3/3/1 5/5/1 6/6/1 
f 1/1/1 3/3/1 6/6/1 
f 7/7/1 1/1/1 6/6/1 
s 2
f 5/8/2 8/9/3 9/10/4 
f 9/10/4 6/11/5 5/8/2 
f 4/12/6 10/13/7 8/9/3 
f 8/9/3 5/8/2 4/12/6 
f 3/14/8 11/15/9 10/13/7 
f 10/13/7 4/12/6 3/14/8 
f 2/16/10 12/17/11 11/15/9 
f 11/15/9 3/14/8 2/16/10 
f 1/18/12 13/19/13 12/17/11 
f 12/17/11 2/16/10 1/18/12 
f 7/20/14 14/21/15 13/19/13 
f 13/19/13 1/18/12 7/20/14 
f 6/22/5 9/23/4 14/21/15 
f 14/21/15 7/20/14 6/22/5 
s 1
f 15/24/16 16/25/16 17/26/16 
f 17/26/16 18/27/16 19/28/16 
f 17/26/16 19/28/16 20/29/16 
f 15/24/16 17/26/16 20/29/16 
f 21/30/16 15/24/16 20/29/16 
s 2
f 22/31/17 23/32/18 24/33/19 
f 24/33/19 25/34/20 22/31/17 
f 23/32/18 26/35/21 27/36/22 
f 27/36/22 24/33/19 23/32/18 
f 26/35/21 28/37/23 29/38/24 
f 29/38/24 27/36/22 26/35/21 
f 28/37/23 30/39/25 31/40/26 
f 31/40/26 29/38/24 28/37/23 
f 30/39/25 32/41/27 33/42/28 
f 33/42/28 31/40/26 30/39/25 
f 32/41/27 34/43/29 35/44/30 
f 35/44/30 33/42/28 32/41/27 
f 34/43/29 22/31/17 25/34/20 
f 25/34/20 35/44/30 34/43/29 
f 36/45/31 37/46/32 16/47/33 
f 16/47/33 15/48/34 36/45/31 
f 37/46/32 38/49/35 17/50/36 
f 17/50/36 16/47/33 37/46/32 
f 38/49/35 39/51/37 18/52/38 
f 18/52/38 17/50/36 38/49/35 
f 39/51/37 40/53/39 19/54/40 
f 19/54/40 18/52/38 39/51/37 
f 40/53/39 41/55/41 20/56/42 
f 20/56/42 19/54/40 40/53/39 
f 41/55/41 42/57/43 21/58/44 
f 21/58/44 20/56/42 41/55/41 
f 42/57/43 36/59/31 15/60/34 
f 15/60/34 21/58/44 42/57/43 
f 43/61/45 44/62/46 9/10/4 
f 9/10/4 8/9/3 43/61/45 
f 45/63/47 43/61/45 8/9/3 
f 8/9/3 10/13/7 45/63/47 
f 46/64/48 45/63/47 10/13/7 
f 10/13/7 11/15/9 46/64/48 
f 47/65/49 46/64/48 11/15/9 
f 11/15/9 12/17/11 47/65/49 
f 48/66/50 47/65/49 12/17/11 
f 12/17/11 13/19/13 48/66/50 
f 49/67/51 48/66/50 13/19/13 
f 13/19/13 14/21/15 49/67/51 
f 44/68/46 49/67/51 14/21/15 
f 14/21/15 9/69/4 44/68/46 
f 22/31/17 44/70/46 43/71/45 
f 43/71/45 23/32/18 22/31/17 
f 23/32/18 43/71/45 45/72/47 
f 45/72/47 26/35/21 23/32/18 
f 26/35/21 45/72/47 46/73/48 
f 46/73/48 28/37/23 26/35/21 
f 28/37/23 46/73/48 47/74/49 
f 47/74/49 30/39/25 28/37/23 
f 30/39/25 47/74/49 48/75/50 
f 48/75/50 32/41/27 30/39/25 
f 32/41/27 48/75/50 49/76/51 
f 49/76/51 34/43/29 32/41/27 
f 34/43/29 49/76/51 44/70/46 
f 44/70/46 22/31/17 34/43/29 
f 36/77/31 25/34/20 24/33/19 
f 24/33/19 37/78/32 36/77/31 
f 37/78/32 24/33/19 27/36/22 
f 27/36/22 38/79/35 37/78/32 
f 38/79/35 27/36/22 29/38/24 
f 29/38/24 39/80/37 38/79/35 
f 39/80/37 29/38/24 31/40/26 
f 31/40/26 40/81/39 39/80/37 
f 40/81/39 31/40/26 33/42/28 
f 33/42/28 41/82/41 40/81/39 
f 41/82/41 33/42/28 35/44/30 
f 35/44/30 42/83/43 41/82/41 
f 42/83/43 35/44/30 25/34/20 
f 25/34/20 36/77/31 42/83/43 
# 94 faces

