# 3ds Max Wavefront OBJ Exporter v0.97b - (c)2007 guruware
# File Created: 01.12.2017 17:20:12

#
# object Frame_big
#

v  -38.1368 133.5223 -396.8646
v  -31.1517 133.5223 -396.8646
v  -31.1517 127.6011 -396.8646
v  -38.1368 127.6011 -396.8646
v  -31.1517 127.6011 -391.8646
v  -31.1517 133.5223 -391.8646
v  -38.1368 133.5223 -391.8646
v  -38.1368 127.6011 -391.8646
v  41.8632 133.5223 -396.8646
v  41.8632 133.5223 -391.8646
v  41.8632 127.6011 -391.8646
v  41.8632 127.6011 -396.8646
v  34.5345 237.6011 -396.8646
v  34.5345 237.6011 -391.8646
v  41.8632 237.6011 -391.8646
v  41.8632 237.6011 -396.8646
v  -38.1368 230.9577 -396.8646
v  -38.1368 230.9577 -391.8646
v  -38.1368 237.6011 -391.8646
v  -38.1368 237.6011 -396.8646
v  34.5345 230.9577 -396.8646
v  -31.1517 230.9577 -396.8646
v  -31.1517 237.6011 -396.8646
v  34.5345 127.6011 -391.8646
v  34.5345 133.5223 -391.8646
v  34.5345 127.6011 -396.8646
v  -31.1517 237.6011 -391.8646
v  -31.1517 230.9577 -391.8646
v  41.8632 230.9577 -391.8646
v  41.8632 230.9577 -396.8646
v  34.5345 133.5223 -396.8646
v  34.5345 230.9577 -391.8646
v  -31.1517 230.9577 -393.3347
v  -31.1517 133.5223 -393.3347
v  34.5345 133.5223 -393.3347
v  34.5345 230.9577 -393.3347
# 36 vertices

vn 0.0000 0.0000 -1.0000
vn 0.0000 -0.0000 1.0000
vn 0.0000 -1.0000 -0.0000
vn 1.0000 0.0000 -0.0000
vn 0.0000 1.0000 0.0000
vn -1.0000 0.0000 -0.0000
# 6 vertex normals

vt 0.8067 0.0330 0.0000
vt 0.7737 0.0330 0.0000
vt 0.7737 0.0050 0.0000
vt 0.8067 0.0050 0.0000
vt 0.0733 0.0050 0.0000
vt 0.0733 0.0330 0.0000
vt 0.0403 0.0330 0.0000
vt 0.0403 0.0050 0.0000
vt 0.7031 0.5576 0.0000
vt 0.7031 0.5339 0.0000
vt 0.7362 0.5339 0.0000
vt 0.7362 0.5576 0.0000
vt 0.8397 0.0330 0.0000
vt 0.8160 0.0330 0.0000
vt 0.8160 0.0050 0.0000
vt 0.8397 0.0050 0.0000
vt 0.7015 0.5929 0.0000
vt 0.7015 0.5692 0.0000
vt 0.7362 0.5692 0.0000
vt 0.7362 0.5929 0.0000
vt 0.0050 0.4941 0.0000
vt 0.0287 0.4941 0.0000
vt 0.0287 0.5255 0.0000
vt 0.0050 0.5255 0.0000
vt 0.4628 0.5255 0.0000
vt 0.4628 0.4941 0.0000
vt 0.7737 0.4941 0.0000
vt 0.7737 0.5255 0.0000
vt 0.3841 0.0050 0.0000
vt 0.3841 0.0330 0.0000
vt 0.3923 0.5576 0.0000
vt 0.3923 0.5339 0.0000
vt 0.3576 0.5929 0.0000
vt 0.3576 0.5692 0.0000
vt 0.3907 0.5692 0.0000
vt 0.3907 0.5929 0.0000
vt 0.8067 0.5255 0.0000
vt 0.8067 0.4941 0.0000
vt 0.0733 0.5255 0.0000
vt 0.0403 0.5255 0.0000
vt 0.0403 0.4941 0.0000
vt 0.0733 0.4941 0.0000
vt 0.8397 0.5255 0.0000
vt 0.8160 0.5255 0.0000
vt 0.8160 0.4941 0.0000
vt 0.8397 0.4941 0.0000
vt 0.0050 0.0330 0.0000
vt 0.0287 0.0330 0.0000
vt 0.4281 0.0330 0.0000
vt 0.4628 0.0330 0.0000
vt 0.4281 0.4941 0.0000
vt 0.4188 0.5255 0.0000
vt 0.3841 0.5255 0.0000
vt 0.3841 0.4941 0.0000
vt 0.4188 0.4941 0.0000
vt 0.4188 0.0330 0.0000
vt 0.0050 0.0050 0.0000
vt 0.0287 0.0050 0.0000
vt 0.4281 0.0050 0.0000
vt 0.4628 0.0050 0.0000
vt 0.4281 0.5255 0.0000
vt 0.4188 0.0050 0.0000
vt 0.3576 0.5576 0.0000
vt 0.3576 0.5339 0.0000
vt 0.0207 0.9950 0.0000
vt 0.0207 0.5339 0.0000
vt 0.3315 0.5339 0.0000
vt 0.3315 0.9950 0.0000
vt 0.3420 0.9950 0.0000
vt 0.3420 0.5339 0.0000
vt 0.3489 0.5339 0.0000
vt 0.3489 0.9950 0.0000
vt 0.3576 0.6045 0.0000
vt 0.6685 0.6045 0.0000
vt 0.6685 0.6114 0.0000
vt 0.3576 0.6114 0.0000
vt 0.0120 0.5339 0.0000
vt 0.0120 0.9950 0.0000
vt 0.0050 0.9950 0.0000
vt 0.0050 0.5339 0.0000
vt 0.3576 0.6201 0.0000
vt 0.6685 0.6201 0.0000
vt 0.6685 0.6271 0.0000
vt 0.3576 0.6271 0.0000
# 84 texture coords

o Frame_big
g Frame_big
s 2
f 1/1/1 2/2/1 3/3/1 
f 3/3/1 4/4/1 1/1/1 
s 4
f 5/5/2 6/6/2 7/7/2 
f 7/7/2 8/8/2 5/5/2 
s 8
f 3/9/3 5/10/3 8/11/3 
f 8/11/3 4/12/3 3/9/3 
s 16
f 9/13/4 10/14/4 11/15/4 
f 11/15/4 12/16/4 9/13/4 
s 32
f 13/17/5 14/18/5 15/19/5 
f 15/19/5 16/20/5 13/17/5 
s 64
f 17/21/6 18/22/6 19/23/6 
f 19/23/6 20/24/6 17/21/6 
s 2
f 13/25/1 21/26/1 22/27/1 
f 22/27/1 23/28/1 13/25/1 
s 4
f 24/29/2 25/30/2 6/6/2 
f 6/6/2 5/5/2 24/29/2 
s 8
f 26/31/3 24/32/3 5/10/3 
f 5/10/3 3/9/3 26/31/3 
s 32
f 20/33/5 19/34/5 27/35/5 
f 27/35/5 23/36/5 20/33/5 
s 2
f 20/37/1 23/28/1 22/27/1 
f 22/27/1 17/38/1 20/37/1 
s 4
f 27/39/2 19/40/2 18/41/2 
f 18/41/2 28/42/2 27/39/2 
s 16
f 16/43/4 15/44/4 29/45/4 
f 29/45/4 30/46/4 16/43/4 
s 64
f 1/47/6 7/48/6 18/22/6 
f 18/22/6 17/21/6 1/47/6 
s 2
f 9/49/1 31/50/1 21/26/1 
f 21/26/1 30/51/1 9/49/1 
s 4
f 15/52/2 14/53/2 32/54/2 
f 32/54/2 29/55/2 15/52/2 
s 2
f 17/38/1 22/27/1 2/2/1 
f 2/2/1 1/1/1 17/38/1 
s 4
f 28/42/2 18/41/2 7/7/2 
f 7/7/2 6/6/2 28/42/2 
s 16
f 30/46/4 29/45/4 10/14/4 
f 10/14/4 9/13/4 30/46/4 
s 4
f 29/55/2 32/54/2 25/30/2 
f 25/30/2 10/56/2 29/55/2 
s 64
f 4/57/6 8/58/6 7/48/6 
f 7/48/6 1/47/6 4/57/6 
s 2
f 12/59/1 26/60/1 31/50/1 
f 31/50/1 9/49/1 12/59/1 
s 32
f 23/36/5 27/35/5 14/18/5 
f 14/18/5 13/17/5 23/36/5 
s 2
f 16/61/1 30/51/1 21/26/1 
f 21/26/1 13/25/1 16/61/1 
s 4
f 11/62/2 10/56/2 25/30/2 
f 25/30/2 24/29/2 11/62/2 
s 8
f 12/63/3 11/64/3 24/32/3 
f 24/32/3 26/31/3 12/63/3 
s 2
f 2/2/1 22/27/1 21/26/1 
f 21/26/1 31/50/1 2/2/1 
s 4
f 27/39/2 28/42/2 32/54/2 
f 32/54/2 14/53/2 27/39/2 
f 33/65/2 34/66/2 35/67/2 
f 35/67/2 36/68/2 33/65/2 
s 2
f 3/3/1 2/2/1 31/50/1 
f 31/50/1 26/60/1 3/3/1 
s off
f 28/69/4 6/70/4 34/71/4 
f 34/71/4 33/72/4 28/69/4 
f 6/73/5 25/74/5 35/75/5 
f 35/75/5 34/76/5 6/73/5 
f 25/77/6 32/78/6 36/79/6 
f 36/79/6 35/80/6 25/77/6 
f 32/81/3 28/82/3 33/83/3 
f 33/83/3 36/84/3 32/81/3 
# 68 faces

