# 3ds Max Wavefront OBJ Exporter v0.97b - (c)2007 guruware
# File Created: 01.12.2017 17:17:27

#
# object Plate
#

v  -64.5725 74.0818 -0.8560
v  -55.7860 74.2246 -4.4955
v  -55.0621 74.2246 -0.8560
v  -57.8476 74.2246 -7.5809
v  -60.9330 74.2246 -9.6425
v  -64.5725 74.2246 -10.3664
v  -68.2120 74.2246 -9.6425
v  -71.2974 74.2246 -7.5809
v  -73.3590 74.2246 -4.4955
v  -74.0830 74.2246 -0.8560
v  -73.3590 74.2246 2.7835
v  -71.2974 74.2246 5.8689
v  -68.2120 74.2246 7.9305
v  -64.5725 74.2246 8.6545
v  -60.9330 74.2246 7.9305
v  -57.8476 74.2246 5.8689
v  -55.7860 74.2246 2.7835
v  -46.2322 75.6628 -8.4528
v  -44.7211 75.6628 -0.8560
v  -50.5354 75.6628 -14.8931
v  -56.9757 75.6628 -19.1963
v  -64.5725 75.6628 -20.7074
v  -72.1693 75.6628 -19.1963
v  -78.6096 75.6628 -14.8931
v  -82.9128 75.6628 -8.4528
v  -84.4240 75.6628 -0.8560
v  -82.9128 75.6628 6.7408
v  -78.6096 75.6628 13.1811
v  -72.1693 75.6628 17.4844
v  -64.5725 75.6628 18.9955
v  -56.9757 75.6628 17.4844
v  -50.5354 75.6628 13.1811
v  -46.2322 75.6628 6.7408
v  -44.5725 75.8335 -0.8560
v  -46.0949 75.8335 -8.5096
v  -46.0949 76.2934 -8.5096
v  -44.5725 76.2934 -0.8560
v  -50.4304 75.8335 -14.9981
v  -50.4304 76.2934 -14.9981
v  -56.9188 75.8335 -19.3336
v  -56.9188 76.2934 -19.3336
v  -64.5725 75.8335 -20.8560
v  -64.5725 76.2934 -20.8560
v  -72.2262 75.8335 -19.3336
v  -72.2262 76.2934 -19.3336
v  -78.7147 75.8335 -14.9981
v  -78.7147 76.2934 -14.9981
v  -83.0501 75.8335 -8.5096
v  -83.0501 76.2934 -8.5096
v  -84.5725 75.8335 -0.8560
v  -84.5725 76.2934 -0.8560
v  -83.0501 75.8335 6.7977
v  -83.0501 76.2934 6.7977
v  -78.7147 75.8335 13.2862
v  -78.7147 76.2934 13.2862
v  -72.2262 75.8335 17.6216
v  -72.2262 76.2934 17.6216
v  -64.5725 75.8335 19.1440
v  -64.5725 76.2934 19.1440
v  -56.9188 75.8335 17.6216
v  -56.9188 76.2934 17.6216
v  -50.4304 75.8335 13.2862
v  -50.4304 76.2934 13.2862
v  -46.0949 75.8335 6.7977
v  -46.0949 76.2934 6.7977
v  -44.7209 76.4214 -0.8560
v  -46.2320 76.4214 -8.4529
v  -50.7751 75.6906 -6.5711
v  -49.6383 75.6906 -0.8560
v  -50.5353 76.4214 -14.8932
v  -54.0124 75.6906 -11.4161
v  -56.9756 76.4214 -19.1965
v  -58.8574 75.6906 -14.6534
v  -64.5725 76.4214 -20.7076
v  -64.5725 75.6906 -15.7902
v  -72.1694 76.4214 -19.1965
v  -70.2876 75.6906 -14.6534
v  -78.6097 76.4214 -14.8932
v  -75.1326 75.6906 -11.4161
v  -82.9130 76.4214 -8.4529
v  -78.3700 75.6906 -6.5711
v  -84.4241 76.4214 -0.8560
v  -79.5068 75.6906 -0.8560
v  -82.9130 76.4214 6.7409
v  -78.3700 75.6906 4.8591
v  -78.6097 76.4214 13.1812
v  -75.1326 75.6906 9.7041
v  -72.1694 76.4214 17.4845
v  -70.2876 75.6906 12.9415
v  -64.5725 76.4214 18.9957
v  -64.5725 75.6906 14.0783
v  -56.9756 76.4214 17.4845
v  -58.8574 75.6906 12.9415
v  -50.5353 76.4214 13.1812
v  -54.0124 75.6906 9.7041
v  -46.2320 76.4214 6.7409
v  -50.7751 75.6906 4.8591
v  -64.5725 75.6906 -0.8560
# 98 vertices

vn -0.0000 -1.0000 -0.0000
vn 0.0778 -0.9965 -0.0322
vn 0.0842 -0.9965 -0.0000
vn 0.0595 -0.9965 -0.0595
vn 0.0322 -0.9965 -0.0778
vn -0.0000 -0.9965 -0.0842
vn -0.0322 -0.9965 -0.0778
vn -0.0595 -0.9965 -0.0595
vn -0.0778 -0.9965 -0.0322
vn -0.0842 -0.9965 -0.0000
vn -0.0778 -0.9965 0.0322
vn -0.0595 -0.9965 0.0595
vn -0.0322 -0.9965 0.0778
vn 0.0000 -0.9965 0.0842
vn 0.0322 -0.9965 0.0778
vn 0.0595 -0.9965 0.0595
vn 0.0778 -0.9965 0.0322
vn 0.4699 -0.8610 -0.1947
vn 0.5087 -0.8610 -0.0000
vn 0.3597 -0.8610 -0.3597
vn 0.1947 -0.8610 -0.4699
vn -0.0000 -0.8610 -0.5087
vn -0.1947 -0.8610 -0.4699
vn -0.3597 -0.8610 -0.3597
vn -0.4699 -0.8610 -0.1947
vn -0.5087 -0.8610 -0.0000
vn -0.4699 -0.8610 0.1947
vn -0.3597 -0.8610 0.3597
vn -0.1947 -0.8610 0.4699
vn 0.0000 -0.8610 0.5087
vn 0.1947 -0.8610 0.4699
vn 0.3597 -0.8610 0.3597
vn 0.4699 -0.8610 0.1947
vn 0.9415 -0.3370 -0.0000
vn 0.8698 -0.3370 -0.3603
vn 0.8475 0.3981 -0.3511
vn 0.9174 0.3981 -0.0000
vn 0.6657 -0.3370 -0.6657
vn 0.6487 0.3981 -0.6487
vn 0.3603 -0.3370 -0.8698
vn 0.3511 0.3981 -0.8475
vn -0.0000 -0.3370 -0.9415
vn 0.0000 0.3981 -0.9174
vn -0.3603 -0.3370 -0.8698
vn -0.3511 0.3981 -0.8475
vn -0.6657 -0.3370 -0.6657
vn -0.6487 0.3981 -0.6487
vn -0.8698 -0.3370 -0.3603
vn -0.8475 0.3981 -0.3511
vn -0.9415 -0.3370 -0.0000
vn -0.9174 0.3981 -0.0000
vn -0.8698 -0.3370 0.3603
vn -0.8475 0.3981 0.3511
vn -0.6657 -0.3370 0.6657
vn -0.6487 0.3981 0.6487
vn -0.3603 -0.3370 0.8698
vn -0.3511 0.3981 0.8475
vn 0.0000 -0.3370 0.9415
vn 0.0000 0.3981 0.9174
vn 0.3603 -0.3370 0.8698
vn 0.3511 0.3981 0.8475
vn 0.6657 -0.3370 0.6657
vn 0.6487 0.3981 0.6487
vn 0.8698 -0.3370 0.3603
vn 0.8475 0.3981 0.3511
vn 0.3249 0.9458 -0.0000
vn 0.3002 0.9458 -0.1243
vn -0.0765 0.9966 0.0317
vn -0.0828 0.9966 0.0000
vn 0.2297 0.9458 -0.2297
vn -0.0586 0.9966 0.0586
vn 0.1243 0.9458 -0.3002
vn -0.0317 0.9966 0.0765
vn 0.0000 0.9458 -0.3249
vn -0.0000 0.9966 0.0828
vn -0.1243 0.9458 -0.3002
vn 0.0317 0.9966 0.0765
vn -0.2297 0.9458 -0.2297
vn 0.0586 0.9966 0.0586
vn -0.3002 0.9458 -0.1243
vn 0.0765 0.9966 0.0317
vn -0.3249 0.9458 -0.0000
vn 0.0828 0.9966 0.0000
vn -0.3002 0.9458 0.1243
vn 0.0765 0.9966 -0.0317
vn -0.2297 0.9458 0.2297
vn 0.0586 0.9966 -0.0586
vn -0.1243 0.9458 0.3002
vn 0.0317 0.9966 -0.0765
vn 0.0000 0.9458 0.3249
vn -0.0000 0.9966 -0.0828
vn 0.1243 0.9458 0.3002
vn -0.0317 0.9966 -0.0765
vn 0.2297 0.9458 0.2297
vn -0.0586 0.9966 -0.0586
vn 0.3002 0.9458 0.1243
vn -0.0765 0.9966 -0.0317
vn 0.0000 1.0000 -0.0000
# 98 vertex normals

vt 0.2865 0.3369 0.0000
vt 0.1667 0.4001 0.0000
vt 0.1517 0.3494 0.0000
vt 0.2000 0.4411 0.0000
vt 0.2465 0.4663 0.0000
vt 0.2991 0.4718 0.0000
vt 0.3498 0.4567 0.0000
vt 0.3908 0.4234 0.0000
vt 0.4160 0.3769 0.0000
vt 0.4214 0.3243 0.0000
vt 0.4064 0.2737 0.0000
vt 0.3730 0.2326 0.0000
vt 0.3266 0.2075 0.0000
vt 0.2740 0.2020 0.0000
vt 0.2233 0.2171 0.0000
vt 0.1823 0.2504 0.0000
vt 0.1571 0.2969 0.0000
vt 0.0365 0.4688 0.0000
vt 0.0050 0.3631 0.0000
vt 0.1060 0.5545 0.0000
vt 0.2030 0.6070 0.0000
vt 0.3127 0.6184 0.0000
vt 0.4185 0.5870 0.0000
vt 0.5041 0.5175 0.0000
vt 0.5567 0.4204 0.0000
vt 0.5681 0.3107 0.0000
vt 0.5366 0.2050 0.0000
vt 0.4671 0.1193 0.0000
vt 0.3701 0.0668 0.0000
vt 0.2604 0.0553 0.0000
vt 0.1546 0.0868 0.0000
vt 0.0689 0.1563 0.0000
vt 0.0164 0.2533 0.0000
vt 0.6610 0.0406 0.0000
vt 0.7437 0.0487 0.0000
vt 0.7437 0.0574 0.0000
vt 0.6610 0.0493 0.0000
vt 0.7728 0.0582 0.0000
vt 0.7728 0.0670 0.0000
vt 0.0092 0.0330 0.0000
vt 0.0383 0.0235 0.0000
vt 0.0383 0.0322 0.0000
vt 0.0092 0.0418 0.0000
vt 0.1210 0.0154 0.0000
vt 0.1210 0.0241 0.0000
vt 0.2449 0.0100 0.0000
vt 0.2449 0.0187 0.0000
vt 0.3910 0.0081 0.0000
vt 0.3910 0.0168 0.0000
vt 0.5371 0.0100 0.0000
vt 0.5371 0.0187 0.0000
vt 0.6610 0.0154 0.0000
vt 0.6610 0.0241 0.0000
vt 0.7437 0.0235 0.0000
vt 0.7437 0.0322 0.0000
vt 0.7728 0.0330 0.0000
vt 0.7728 0.0418 0.0000
vt 0.0092 0.0582 0.0000
vt 0.0383 0.0487 0.0000
vt 0.0383 0.0574 0.0000
vt 0.0092 0.0670 0.0000
vt 0.1210 0.0406 0.0000
vt 0.1210 0.0493 0.0000
vt 0.2449 0.0351 0.0000
vt 0.2449 0.0439 0.0000
vt 0.3910 0.0332 0.0000
vt 0.3910 0.0420 0.0000
vt 0.5371 0.0351 0.0000
vt 0.5371 0.0439 0.0000
vt 0.9444 0.8780 0.0000
vt 0.8635 0.9527 0.0000
vt 0.8270 0.8931 0.0000
vt 0.8879 0.8368 0.0000
vt 0.7601 0.9908 0.0000
vt 0.7492 0.9217 0.0000
vt 0.6500 0.9864 0.0000
vt 0.6664 0.9184 0.0000
vt 0.5500 0.9403 0.0000
vt 0.5911 0.8837 0.0000
vt 0.4753 0.8593 0.0000
vt 0.5349 0.8228 0.0000
vt 0.4372 0.7559 0.0000
vt 0.5063 0.7450 0.0000
vt 0.4415 0.6458 0.0000
vt 0.5096 0.6622 0.0000
vt 0.4877 0.5458 0.0000
vt 0.5443 0.5869 0.0000
vt 0.5687 0.4711 0.0000
vt 0.6052 0.5307 0.0000
vt 0.6720 0.4330 0.0000
vt 0.6830 0.5021 0.0000
vt 0.7821 0.4373 0.0000
vt 0.7658 0.5054 0.0000
vt 0.8822 0.4835 0.0000
vt 0.8410 0.5401 0.0000
vt 0.9569 0.5645 0.0000
vt 0.8973 0.6010 0.0000
vt 0.9950 0.6678 0.0000
vt 0.9259 0.6788 0.0000
vt 0.9906 0.7779 0.0000
vt 0.9226 0.7616 0.0000
vt 0.7161 0.7119 0.0000
vt 0.7411 0.0455 0.0000
vt 0.6590 0.0374 0.0000
vt 0.7700 0.0550 0.0000
vt 0.0409 0.0203 0.0000
vt 0.0120 0.0298 0.0000
vt 0.1230 0.0123 0.0000
vt 0.2460 0.0069 0.0000
vt 0.3910 0.0050 0.0000
vt 0.5360 0.0069 0.0000
vt 0.6590 0.0123 0.0000
vt 0.7411 0.0203 0.0000
vt 0.7700 0.0298 0.0000
vt 0.0409 0.0455 0.0000
vt 0.0120 0.0550 0.0000
vt 0.1230 0.0374 0.0000
vt 0.2460 0.0321 0.0000
vt 0.3910 0.0302 0.0000
vt 0.5360 0.0321 0.0000
vt 0.7411 0.0599 0.0000
vt 0.6590 0.0519 0.0000
vt 0.7700 0.0694 0.0000
vt 0.0409 0.0347 0.0000
vt 0.0120 0.0442 0.0000
vt 0.1230 0.0267 0.0000
vt 0.2460 0.0213 0.0000
vt 0.3910 0.0194 0.0000
vt 0.5360 0.0213 0.0000
vt 0.6590 0.0267 0.0000
vt 0.7411 0.0347 0.0000
vt 0.7700 0.0442 0.0000
vt 0.0409 0.0599 0.0000
vt 0.0120 0.0694 0.0000
vt 0.1230 0.0519 0.0000
vt 0.2460 0.0465 0.0000
vt 0.3910 0.0446 0.0000
vt 0.5360 0.0465 0.0000
# 138 texture coords

o Plate
g Plate
s 1
f 1/1/1 2/2/2 3/3/3 
f 1/1/1 4/4/4 2/2/2 
f 1/1/1 5/5/5 4/4/4 
f 1/1/1 6/6/6 5/5/5 
f 1/1/1 7/7/7 6/6/6 
f 1/1/1 8/8/8 7/7/7 
f 1/1/1 9/9/9 8/8/8 
f 1/1/1 10/10/10 9/9/9 
f 1/1/1 11/11/11 10/10/10 
f 1/1/1 12/12/12 11/11/11 
f 1/1/1 13/13/13 12/12/12 
f 1/1/1 14/14/14 13/13/13 
f 1/1/1 15/15/15 14/14/14 
f 1/1/1 16/16/16 15/15/15 
f 1/1/1 17/17/17 16/16/16 
f 1/1/1 3/3/3 17/17/17 
f 3/3/3 2/2/2 18/18/18 
f 18/18/18 19/19/19 3/3/3 
f 2/2/2 4/4/4 20/20/20 
f 20/20/20 18/18/18 2/2/2 
f 4/4/4 5/5/5 21/21/21 
f 21/21/21 20/20/20 4/4/4 
f 5/5/5 6/6/6 22/22/22 
f 22/22/22 21/21/21 5/5/5 
f 6/6/6 7/7/7 23/23/23 
f 23/23/23 22/22/22 6/6/6 
f 7/7/7 8/8/8 24/24/24 
f 24/24/24 23/23/23 7/7/7 
f 8/8/8 9/9/9 25/25/25 
f 25/25/25 24/24/24 8/8/8 
f 9/9/9 10/10/10 26/26/26 
f 26/26/26 25/25/25 9/9/9 
f 10/10/10 11/11/11 27/27/27 
f 27/27/27 26/26/26 10/10/10 
f 11/11/11 12/12/12 28/28/28 
f 28/28/28 27/27/27 11/11/11 
f 12/12/12 13/13/13 29/29/29 
f 29/29/29 28/28/28 12/12/12 
f 13/13/13 14/14/14 30/30/30 
f 30/30/30 29/29/29 13/13/13 
f 14/14/14 15/15/15 31/31/31 
f 31/31/31 30/30/30 14/14/14 
f 15/15/15 16/16/16 32/32/32 
f 32/32/32 31/31/31 15/15/15 
f 16/16/16 17/17/17 33/33/33 
f 33/33/33 32/32/32 16/16/16 
f 17/17/17 3/3/3 19/19/19 
f 19/19/19 33/33/33 17/17/17 
f 34/34/34 35/35/35 36/36/36 
f 36/36/36 37/37/37 34/34/34 
f 35/35/35 38/38/38 39/39/39 
f 39/39/39 36/36/36 35/35/35 
f 38/40/38 40/41/40 41/42/41 
f 41/42/41 39/43/39 38/40/38 
f 40/41/40 42/44/42 43/45/43 
f 43/45/43 41/42/41 40/41/40 
f 42/44/42 44/46/44 45/47/45 
f 45/47/45 43/45/43 42/44/42 
f 44/46/44 46/48/46 47/49/47 
f 47/49/47 45/47/45 44/46/44 
f 46/48/46 48/50/48 49/51/49 
f 49/51/49 47/49/47 46/48/46 
f 48/50/48 50/52/50 51/53/51 
f 51/53/51 49/51/49 48/50/48 
f 50/52/50 52/54/52 53/55/53 
f 53/55/53 51/53/51 50/52/50 
f 52/54/52 54/56/54 55/57/55 
f 55/57/55 53/55/53 52/54/52 
f 54/58/54 56/59/56 57/60/57 
f 57/60/57 55/61/55 54/58/54 
f 56/59/56 58/62/58 59/63/59 
f 59/63/59 57/60/57 56/59/56 
f 58/62/58 60/64/60 61/65/61 
f 61/65/61 59/63/59 58/62/58 
f 60/64/60 62/66/62 63/67/63 
f 63/67/63 61/65/61 60/64/60 
f 62/66/62 64/68/64 65/69/65 
f 65/69/65 63/67/63 62/66/62 
f 64/68/64 34/34/34 37/37/37 
f 37/37/37 65/69/65 64/68/64 
f 66/70/66 67/71/67 68/72/68 
f 68/72/68 69/73/69 66/70/66 
f 67/71/67 70/74/70 71/75/71 
f 71/75/71 68/72/68 67/71/67 
f 70/74/70 72/76/72 73/77/73 
f 73/77/73 71/75/71 70/74/70 
f 72/76/72 74/78/74 75/79/75 
f 75/79/75 73/77/73 72/76/72 
f 74/78/74 76/80/76 77/81/77 
f 77/81/77 75/79/75 74/78/74 
f 76/80/76 78/82/78 79/83/79 
f 79/83/79 77/81/77 76/80/76 
f 78/82/78 80/84/80 81/85/81 
f 81/85/81 79/83/79 78/82/78 
f 80/84/80 82/86/82 83/87/83 
f 83/87/83 81/85/81 80/84/80 
f 82/86/82 84/88/84 85/89/85 
f 85/89/85 83/87/83 82/86/82 
f 84/88/84 86/90/86 87/91/87 
f 87/91/87 85/89/85 84/88/84 
f 86/90/86 88/92/88 89/93/89 
f 89/93/89 87/91/87 86/90/86 
f 88/92/88 90/94/90 91/95/91 
f 91/95/91 89/93/89 88/92/88 
f 90/94/90 92/96/92 93/97/93 
f 93/97/93 91/95/91 90/94/90 
f 92/96/92 94/98/94 95/99/95 
f 95/99/95 93/97/93 92/96/92 
f 94/98/94 96/100/96 97/101/97 
f 97/101/97 95/99/95 94/98/94 
f 96/100/96 66/70/66 69/73/69 
f 69/73/69 97/101/97 96/100/96 
f 98/102/98 69/73/69 68/72/68 
f 98/102/98 68/72/68 71/75/71 
f 98/102/98 71/75/71 73/77/73 
f 98/102/98 73/77/73 75/79/75 
f 98/102/98 75/79/75 77/81/77 
f 98/102/98 77/81/77 79/83/79 
f 98/102/98 79/83/79 81/85/81 
f 98/102/98 81/85/81 83/87/83 
f 98/102/98 83/87/83 85/89/85 
f 98/102/98 85/89/85 87/91/87 
f 98/102/98 87/91/87 89/93/89 
f 98/102/98 89/93/89 91/95/91 
f 98/102/98 91/95/91 93/97/93 
f 98/102/98 93/97/93 95/99/95 
f 98/102/98 95/99/95 97/101/97 
f 98/102/98 97/101/97 69/73/69 
f 18/103/18 35/35/35 34/34/34 
f 34/34/34 19/104/19 18/103/18 
f 20/105/20 38/38/38 35/35/35 
f 35/35/35 18/103/18 20/105/20 
f 21/106/21 40/41/40 38/40/38 
f 38/40/38 20/107/20 21/106/21 
f 22/108/22 42/44/42 40/41/40 
f 40/41/40 21/106/21 22/108/22 
f 23/109/23 44/46/44 42/44/42 
f 42/44/42 22/108/22 23/109/23 
f 24/110/24 46/48/46 44/46/44 
f 44/46/44 23/109/23 24/110/24 
f 25/111/25 48/50/48 46/48/46 
f 46/48/46 24/110/24 25/111/25 
f 26/112/26 50/52/50 48/50/48 
f 48/50/48 25/111/25 26/112/26 
f 27/113/27 52/54/52 50/52/50 
f 50/52/50 26/112/26 27/113/27 
f 28/114/28 54/56/54 52/54/52 
f 52/54/52 27/113/27 28/114/28 
f 29/115/29 56/59/56 54/58/54 
f 54/58/54 28/116/28 29/115/29 
f 30/117/30 58/62/58 56/59/56 
f 56/59/56 29/115/29 30/117/30 
f 31/118/31 60/64/60 58/62/58 
f 58/62/58 30/117/30 31/118/31 
f 32/119/32 62/66/62 60/64/60 
f 60/64/60 31/118/31 32/119/32 
f 33/120/33 64/68/64 62/66/62 
f 62/66/62 32/119/32 33/120/33 
f 19/104/19 34/34/34 64/68/64 
f 64/68/64 33/120/33 19/104/19 
f 36/36/36 67/121/67 66/122/66 
f 66/122/66 37/37/37 36/36/36 
f 39/39/39 70/123/70 67/121/67 
f 67/121/67 36/36/36 39/39/39 
f 41/42/41 72/124/72 70/125/70 
f 70/125/70 39/43/39 41/42/41 
f 43/45/43 74/126/74 72/124/72 
f 72/124/72 41/42/41 43/45/43 
f 45/47/45 76/127/76 74/126/74 
f 74/126/74 43/45/43 45/47/45 
f 47/49/47 78/128/78 76/127/76 
f 76/127/76 45/47/45 47/49/47 
f 49/51/49 80/129/80 78/128/78 
f 78/128/78 47/49/47 49/51/49 
f 51/53/51 82/130/82 80/129/80 
f 80/129/80 49/51/49 51/53/51 
f 53/55/53 84/131/84 82/130/82 
f 82/130/82 51/53/51 53/55/53 
f 55/57/55 86/132/86 84/131/84 
f 84/131/84 53/55/53 55/57/55 
f 57/60/57 88/133/88 86/134/86 
f 86/134/86 55/61/55 57/60/57 
f 59/63/59 90/135/90 88/133/88 
f 88/133/88 57/60/57 59/63/59 
f 61/65/61 92/136/92 90/135/90 
f 90/135/90 59/63/59 61/65/61 
f 63/67/63 94/137/94 92/136/92 
f 92/136/92 61/65/61 63/67/63 
f 65/69/65 96/138/96 94/137/94 
f 94/137/94 63/67/63 65/69/65 
f 37/37/37 66/122/66 96/138/96 
f 96/138/96 65/69/65 37/37/37 
# 192 faces

