# 3ds Max Wavefront OBJ Exporter v0.97b - (c)2007 guruware
# File Created: 01.12.2017 17:19:17

#
# object Vase
#

v  -5.4387 75.9810 9.1107
v  -12.2231 75.9810 3.7002
v  -12.2231 75.9810 -4.9774
v  -5.4386 75.9810 -10.3879
v  3.0215 75.9810 -8.4569
v  6.7866 75.9810 -0.6386
v  3.0215 75.9810 7.1797
v  4.1073 83.9810 -9.8185
v  8.5281 83.9810 -0.6386
v  -5.8262 83.9810 -12.0857
v  -13.7922 83.9810 -5.7330
v  -13.7922 83.9810 4.4559
v  -5.8262 83.9810 10.8085
v  4.1073 83.9810 8.5413
v  3.0215 91.9810 -8.4569
v  6.7866 91.9810 -0.6386
v  -5.4386 91.9810 -10.3879
v  -12.2231 91.9810 -4.9774
v  -12.2231 91.9810 3.7002
v  -5.4387 91.9810 9.1107
v  3.0215 91.9810 7.1797
v  0.5039 99.9810 -5.3000
v  2.7487 99.9810 -0.6386
v  -4.5401 99.9810 -6.4513
v  -8.5851 99.9810 -3.2255
v  -8.5851 99.9810 1.9483
v  -4.5401 99.9810 5.1741
v  0.5039 99.9810 4.0228
v  -0.2756 107.9810 -4.3225
v  1.4984 107.9810 -0.6386
v  -4.2619 107.9810 -5.2323
v  -7.4587 107.9810 -2.6830
v  -7.4587 107.9810 1.4058
v  -4.2619 107.9810 3.9551
v  -0.2756 107.9810 3.0453
v  0.2168 115.5533 -4.9399
v  2.2882 115.5533 -0.6386
v  -4.4377 115.5533 -6.0023
v  -8.1702 115.5533 -3.0257
v  -8.1702 115.5533 1.7485
v  -4.4377 115.5533 4.7251
v  0.2168 115.5533 3.6628
v  1.8555 115.9810 -0.6386
v  -0.0530 115.9810 -4.6017
v  -4.3414 115.9810 -5.5805
v  -7.7804 115.9810 -2.8379
v  -7.7804 115.9810 1.5607
v  -4.3414 115.9810 4.3033
v  -0.0530 115.9810 3.3245
# 49 vertices

vn 0.0000 -1.0000 -0.0000
vn 0.9771 -0.2127 0.0000
vn 0.6092 -0.2127 -0.7639
vn 0.6235 0.0000 -0.7818
vn 1.0000 -0.0000 0.0000
vn -0.2174 -0.2127 -0.9526
vn -0.2225 0.0000 -0.9749
vn -0.8804 -0.2127 -0.4240
vn -0.9010 0.0000 -0.4339
vn -0.8804 -0.2127 0.4240
vn -0.9010 -0.0000 0.4339
vn -0.2174 -0.2127 0.9526
vn -0.2225 -0.0000 0.9749
vn 0.6092 -0.2127 0.7639
vn 0.6235 -0.0000 0.7818
vn 0.5899 0.3238 -0.7397
vn 0.9461 0.3238 0.0000
vn -0.2105 0.3238 -0.9224
vn -0.8524 0.3238 -0.4105
vn -0.8524 0.3238 0.4105
vn -0.2105 0.3238 0.9224
vn 0.5899 0.3238 0.7397
vn 0.5908 0.3196 -0.7408
vn 0.9476 0.3196 0.0000
vn -0.2109 0.3196 -0.9238
vn -0.8537 0.3196 -0.4111
vn -0.8537 0.3196 0.4111
vn -0.2109 0.3196 0.9238
vn 0.5908 0.3196 0.7408
vn 0.6233 0.0265 -0.7816
vn 0.9996 0.0265 -0.0000
vn -0.2224 0.0265 -0.9746
vn -0.9007 0.0265 -0.4337
vn -0.9007 0.0265 0.4337
vn -0.2224 0.0265 0.9746
vn 0.6233 0.0265 0.7816
vn 0.6201 -0.1037 -0.7776
vn 0.9946 -0.1037 0.0000
vn -0.2213 -0.1037 -0.9697
vn -0.8961 -0.1037 -0.4315
vn -0.8961 -0.1037 0.4315
vn -0.2213 -0.1037 0.9697
vn 0.6201 -0.1037 0.7776
vn 0.0000 1.0000 -0.0000
vn 0.4383 0.7112 -0.5496
vn 0.7030 0.7112 0.0000
vn -0.1564 0.7112 -0.6854
vn -0.6334 0.7112 -0.3050
vn -0.6334 0.7112 0.3050
vn -0.1564 0.7112 0.6854
vn 0.4383 0.7112 0.5496
# 51 vertex normals

vt 0.6783 0.7782 0.0000
vt 0.7661 0.6681 0.0000
vt 0.9071 0.6681 0.0000
vt 0.9949 0.7782 0.0000
vt 0.9636 0.9156 0.0000
vt 0.8366 0.9768 0.0000
vt 0.7096 0.9156 0.0000
vt 0.3301 0.0677 0.0000
vt 0.4710 0.1109 0.0000
vt 0.4272 0.2288 0.0000
vt 0.2986 0.1876 0.0000
vt 0.6086 0.1706 0.0000
vt 0.5504 0.2849 0.0000
vt 0.7408 0.2471 0.0000
vt 0.6681 0.3573 0.0000
vt 0.8678 0.3388 0.0000
vt 0.7815 0.4483 0.0000
vt 0.9950 0.4408 0.0000
vt 0.9030 0.5670 0.0000
vt 0.0490 0.0050 0.0000
vt 0.1885 0.0370 0.0000
vt 0.1629 0.1581 0.0000
vt 0.0068 0.1332 0.0000
vt 0.3894 0.3338 0.0000
vt 0.2738 0.2978 0.0000
vt 0.4991 0.3851 0.0000
vt 0.6023 0.4523 0.0000
vt 0.6980 0.5377 0.0000
vt 0.7833 0.6498 0.0000
vt 0.1499 0.2774 0.0000
vt 0.0050 0.2779 0.0000
vt 0.3297 0.4738 0.0000
vt 0.2362 0.4458 0.0000
vt 0.4198 0.5155 0.0000
vt 0.5044 0.5697 0.0000
vt 0.5807 0.6356 0.0000
vt 0.6408 0.7116 0.0000
vt 0.1413 0.4332 0.0000
vt 0.0484 0.4388 0.0000
vt 0.2689 0.6170 0.0000
vt 0.1976 0.5926 0.0000
vt 0.3384 0.6517 0.0000
vt 0.4048 0.6959 0.0000
vt 0.4669 0.7480 0.0000
vt 0.5239 0.8053 0.0000
vt 0.1268 0.5791 0.0000
vt 0.0612 0.5748 0.0000
vt 0.2200 0.7259 0.0000
vt 0.1642 0.7020 0.0000
vt 0.2743 0.7578 0.0000
vt 0.3269 0.7979 0.0000
vt 0.3778 0.8472 0.0000
vt 0.4259 0.9137 0.0000
vt 0.1076 0.6872 0.0000
vt 0.0439 0.6852 0.0000
vt 0.0853 0.6987 0.0000
vt 0.1496 0.7297 0.0000
vt 0.1655 0.7993 0.0000
vt 0.1210 0.8552 0.0000
vt 0.0495 0.8552 0.0000
vt 0.0050 0.7993 0.0000
vt 0.0209 0.7297 0.0000
vt 0.2163 0.7333 0.0000
vt 0.1617 0.7096 0.0000
vt 0.2695 0.7650 0.0000
vt 0.3209 0.8048 0.0000
vt 0.3702 0.8537 0.0000
vt 0.4145 0.9173 0.0000
vt 0.1065 0.6947 0.0000
vt 0.0462 0.6932 0.0000
# 70 texture coords

o Vase
g Vase
s 1
f 1/1/1 2/2/1 3/3/1 
f 3/3/1 4/4/1 5/5/1 
f 3/3/1 5/5/1 6/6/1 
f 1/1/1 3/3/1 6/6/1 
f 7/7/1 1/1/1 6/6/1 
s 2
f 6/8/2 5/9/3 8/10/4 
f 8/10/4 9/11/5 6/8/2 
f 5/9/3 4/12/6 10/13/7 
f 10/13/7 8/10/4 5/9/3 
f 4/12/6 3/14/8 11/15/9 
f 11/15/9 10/13/7 4/12/6 
f 3/14/8 2/16/10 12/17/11 
f 12/17/11 11/15/9 3/14/8 
f 2/16/10 1/18/12 13/19/13 
f 13/19/13 12/17/11 2/16/10 
f 1/20/12 7/21/14 14/22/15 
f 14/22/15 13/23/13 1/20/12 
f 7/21/14 6/8/2 9/11/5 
f 9/11/5 14/22/15 7/21/14 
f 9/11/5 8/10/4 15/24/16 
f 15/24/16 16/25/17 9/11/5 
f 8/10/4 10/13/7 17/26/18 
f 17/26/18 15/24/16 8/10/4 
f 10/13/7 11/15/9 18/27/19 
f 18/27/19 17/26/18 10/13/7 
f 11/15/9 12/17/11 19/28/20 
f 19/28/20 18/27/19 11/15/9 
f 12/17/11 13/19/13 20/29/21 
f 20/29/21 19/28/20 12/17/11 
f 13/23/13 14/22/15 21/30/22 
f 21/30/22 20/31/21 13/23/13 
f 14/22/15 9/11/5 16/25/17 
f 16/25/17 21/30/22 14/22/15 
f 16/25/17 15/24/16 22/32/23 
f 22/32/23 23/33/24 16/25/17 
f 15/24/16 17/26/18 24/34/25 
f 24/34/25 22/32/23 15/24/16 
f 17/26/18 18/27/19 25/35/26 
f 25/35/26 24/34/25 17/26/18 
f 18/27/19 19/28/20 26/36/27 
f 26/36/27 25/35/26 18/27/19 
f 19/28/20 20/29/21 27/37/28 
f 27/37/28 26/36/27 19/28/20 
f 20/31/21 21/30/22 28/38/29 
f 28/38/29 27/39/28 20/31/21 
f 21/30/22 16/25/17 23/33/24 
f 23/33/24 28/38/29 21/30/22 
f 23/33/24 22/32/23 29/40/30 
f 29/40/30 30/41/31 23/33/24 
f 22/32/23 24/34/25 31/42/32 
f 31/42/32 29/40/30 22/32/23 
f 24/34/25 25/35/26 32/43/33 
f 32/43/33 31/42/32 24/34/25 
f 25/35/26 26/36/27 33/44/34 
f 33/44/34 32/43/33 25/35/26 
f 26/36/27 27/37/28 34/45/35 
f 34/45/35 33/44/34 26/36/27 
f 27/39/28 28/38/29 35/46/36 
f 35/46/36 34/47/35 27/39/28 
f 28/38/29 23/33/24 30/41/31 
f 30/41/31 35/46/36 28/38/29 
f 30/41/31 29/40/30 36/48/37 
f 36/48/37 37/49/38 30/41/31 
f 29/40/30 31/42/32 38/50/39 
f 38/50/39 36/48/37 29/40/30 
f 31/42/32 32/43/33 39/51/40 
f 39/51/40 38/50/39 31/42/32 
f 32/43/33 33/44/34 40/52/41 
f 40/52/41 39/51/40 32/43/33 
f 33/44/34 34/45/35 41/53/42 
f 41/53/42 40/52/41 33/44/34 
f 34/47/35 35/46/36 42/54/43 
f 42/54/43 41/55/42 34/47/35 
f 35/46/36 30/41/31 37/49/38 
f 37/49/38 42/54/43 35/46/36 
s 1
f 43/56/44 44/57/44 45/58/44 
f 45/58/44 46/59/44 47/60/44 
f 45/58/44 47/60/44 48/61/44 
f 43/56/44 45/58/44 48/61/44 
f 49/62/44 43/56/44 48/61/44 
s 4
f 36/48/45 44/63/45 43/64/46 
f 43/64/46 37/49/46 36/48/45 
f 38/50/47 45/65/47 44/63/45 
f 44/63/45 36/48/45 38/50/47 
f 39/51/48 46/66/48 45/65/47 
f 45/65/47 38/50/47 39/51/48 
f 40/52/49 47/67/49 46/66/48 
f 46/66/48 39/51/48 40/52/49 
f 41/53/50 48/68/50 47/67/49 
f 47/67/49 40/52/49 41/53/50 
f 42/54/51 49/69/51 48/70/50 
f 48/70/50 41/55/50 42/54/51 
f 37/49/46 43/64/46 49/69/51 
f 49/69/51 42/54/51 37/49/46 
# 94 faces

